<svg width="14" height="14" viewBox="0 0 14 14" fill="none" xmlns="http://www.w3.org/2000/svg">
<path fill-rule="evenodd" clip-rule="evenodd" d="M6.98915 2.29193L1.62715 6.60693C1.19715 6.95293 0.568149 6.88493 0.221149 6.45493C-0.124851 6.02393 -0.0568507 5.39493 0.373149 5.04793L6.37315 0.219933C6.74415 -0.0780667 7.27415 -0.0750667 7.64015 0.231933L13.6401 5.23193C14.0651 5.58493 14.1221 6.21493 13.7681 6.63993C13.5701 6.87693 13.2861 6.99993 13.0001 6.99993C12.7741 6.99993 12.5471 6.92293 12.3601 6.76793L6.98915 2.29193ZM6.37325 7.22043C6.74425 6.92143 7.27425 6.92543 7.64025 7.23143L13.6402 12.2314C14.0642 12.5854 14.1212 13.2154 13.7682 13.6394C13.5702 13.8774 13.2862 13.9994 12.9992 13.9994C12.7742 13.9994 12.5472 13.9234 12.3602 13.7674L6.98925 9.29243L1.62725 13.6064C1.19725 13.9534 0.568248 13.8854 0.221248 13.4544C-0.125752 13.0244 -0.0567517 12.3954 0.373248 12.0484L6.37325 7.22043Z" fill="#212121"/>
</svg>
