<svg width="649" height="144" viewBox="0 0 649 144" fill="none" xmlns="http://www.w3.org/2000/svg">
<path d="M314.392 31.804C317.729 31.804 321.944 35.7466 327.125 43.5443C341.089 60.191 349.519 70.7047 352.505 74.9978H352.944C355.315 72.6323 366.468 58.8768 386.491 33.8191C387.457 32.9429 389.213 32.242 391.76 31.804C396.941 33.0306 399.576 35.3961 399.576 38.7255V41.1787C399.576 42.8434 394.658 49.4144 384.91 60.8043L363.219 88.14C387.457 117.228 399.664 132.473 399.664 133.787V136.24C399.664 140.271 397.029 142.724 391.848 143.6H391.497C388.335 143.6 384.735 140.446 380.783 134.225L353.032 100.318C331.165 127.479 319.749 141.497 318.607 142.286C317.29 143.074 315.885 143.512 314.48 143.512H314.128C309.737 143.512 307.191 140.621 306.312 134.926C306.312 132.823 311.494 125.814 321.856 114.161L342.669 87.6143L307.015 43.1938L306.225 39.8645C307.366 34.4324 310.089 31.804 314.392 31.804Z" fill="#00995D"/>
<path d="M5.35695 35.0457C8.86971 35.0457 11.5043 39.8644 13.2607 49.4144L34.0737 113.198H38.5525C54.1843 63.3451 62.3514 38.0245 63.054 37.0608C64.4591 35.9218 65.952 35.3085 67.5327 35.0457C70.6942 35.0457 73.0653 38.9007 74.4704 46.5231L96.0739 113.198H100.553C115.57 65.185 123.737 40.0397 124.878 37.4989C126.459 35.8342 127.776 35.0457 128.918 35.0457C132.694 35.7466 134.626 37.4112 134.626 40.0397L102.572 139.57C101.167 140.884 99.7623 141.585 98.445 141.585H98.0937C94.5809 141.585 91.9464 136.941 90.1022 127.742C76.9293 88.1399 70.4307 67.0249 70.4307 64.2212H64.8982L40.5723 139.307C39.4307 140.796 38.1134 141.497 36.4448 141.497H36.0936C33.5468 141.497 31.7026 139.657 30.561 136.065L0 40.3901C0.79037 36.7979 2.54675 35.0457 5.35695 35.0457Z" fill="#6F6F6E"/>
<path d="M220.074 33.2935C240.975 33.2935 257.222 43.1939 268.814 63.0823C272.766 70.7924 274.698 79.2034 274.698 88.3153V90.2428C273.995 94.0978 272.326 96.0253 269.604 96.0253H178.097C182.224 110.131 190.128 120.382 201.808 126.69C208.57 129.319 214.893 130.545 220.865 130.545C227.802 130.545 235.355 128.443 243.697 124.325H245.278C248.528 125.026 250.196 126.603 250.196 129.056V130.283C250.196 135.452 241.063 139.219 222.797 141.585H220.162C200.666 141.585 185.122 132.473 173.267 114.249C168.612 105.751 166.241 96.8139 166.241 87.3515C166.241 67.5507 175.638 51.7801 194.431 40.0398C203.476 35.4838 211.995 33.2935 220.074 33.2935ZM177.306 85.2488H263.281C263.281 77.1006 259.681 68.164 252.567 58.4388C242.731 49.2393 233.071 44.6833 223.411 44.6833H218.845C204.53 44.6833 192.763 51.6049 183.542 65.5355C180.292 71.1429 178.272 77.7139 177.306 85.2488Z" fill="#6F6F6E"/>
<path d="M484.848 33.2935C505.749 33.2935 521.996 43.1939 533.588 63.0823C537.54 70.7924 539.471 79.2034 539.471 88.3153V90.2428C538.769 94.0978 537.1 96.0253 534.378 96.0253H442.871C446.998 110.131 454.902 120.382 466.582 126.69C473.344 129.319 479.667 130.545 485.639 130.545C492.576 130.545 500.129 128.443 508.471 124.325H510.052C513.301 125.026 514.97 126.603 514.97 129.056V130.283C514.97 135.452 505.837 139.219 487.571 141.585H484.936C465.528 141.585 449.896 132.473 438.041 114.249C433.386 105.751 431.015 96.8139 431.015 87.3515C431.015 67.5507 440.412 51.7801 459.205 40.0398C468.25 35.4838 476.857 33.2935 484.848 33.2935ZM442.08 85.2488H528.055C528.055 77.1006 524.455 68.164 517.341 58.4388C507.505 49.2393 497.845 44.6833 488.185 44.6833H483.619C469.304 44.6833 457.536 51.6049 448.315 65.5355C445.154 71.1429 443.046 77.7139 442.08 85.2488Z" fill="#6F6F6E"/>
<path d="M576.268 32.5925C579.956 33.5563 581.8 34.9581 581.8 36.8856V52.3057C596.642 39.1636 610.693 32.5049 623.865 32.5049C630.979 32.5049 638.443 34.1696 646.259 37.4989C647.664 38.9883 648.367 40.3902 648.367 41.792V42.0548C647.752 45.647 646.084 47.3993 643.273 47.3993C635.633 44.9461 629.749 43.7195 625.534 43.7195H623.075C605.511 43.7195 592.602 52.8314 584.435 70.9676C582.678 75.874 581.8 81.3061 581.8 87.4391V136.766C581.8 139.394 579.956 140.971 576.355 141.497H576.092C573.457 141.497 571.701 139.57 570.998 135.715V39.6016C571.525 34.9581 573.282 32.5925 576.268 32.5925Z" fill="#6F6F6E"/>
<path d="M368.927 15.683C368.927 24.3568 361.902 31.3659 353.208 31.3659C344.513 31.3659 337.488 24.3568 337.488 15.683C337.488 7.00915 344.513 0 353.208 0C361.902 0 368.927 7.00915 368.927 15.683Z" fill="#00995D"/>
</svg>
