<svg width="739" height="164" viewBox="0 0 739 164" fill="none" xmlns="http://www.w3.org/2000/svg">
<path d="M358 36.3C361.8 36.3 366.6 40.8 372.5 49.7C388.4 68.7 398 80.7 401.4 85.6H401.9C404.6 82.9 417.3 67.2 440.1 38.6C441.2 37.6 443.2 36.8 446.1 36.3C452 37.7 455 40.4 455 44.2V47C455 48.9 449.4 56.4 438.3 69.4L413.6 100.6C441.2 133.8 455.1 151.2 455.1 152.7V155.5C455.1 160.1 452.1 162.9 446.2 163.9H445.8C442.2 163.9 438.1 160.3 433.6 153.2L402 114.5C377.1 145.5 364.1 161.5 362.8 162.4C361.3 163.3 359.7 163.8 358.1 163.8H357.7C352.7 163.8 349.8 160.5 348.8 154C348.8 151.6 354.7 143.6 366.5 130.3L390.2 100L349.6 49.3L348.7 45.5C350 39.3 353.1 36.3 358 36.3Z" fill="white"/>
<path d="M6.1 40C10.1 40 13.1 45.5 15.1 56.4L38.8 129.2H43.9C61.7 72.3 71 43.4 71.8 42.3C73.4 41 75.1 40.3 76.9 40C80.5 40 83.2 44.4 84.8 53.1L109.4 129.2H114.5C131.6 74.4 140.9 45.7 142.2 42.8C144 40.9 145.5 40 146.8 40C151.1 40.8 153.3 42.7 153.3 45.7L116.8 159.3C115.2 160.8 113.6 161.6 112.1 161.6H111.7C107.7 161.6 104.7 156.3 102.6 145.8C87.6 100.6 80.2 76.5 80.2 73.3H73.9L46.2 159C44.9 160.7 43.4 161.5 41.5 161.5H41.1C38.2 161.5 36.1 159.4 34.8 155.3L0 46.1C0.9 42 2.9 40 6.1 40Z" fill="white"/>
<path d="M250.6 38C274.4 38 292.9 49.3 306.1 72C310.6 80.8 312.8 90.4 312.8 100.8V103C312 107.4 310.1 109.6 307 109.6H202.8C207.5 125.7 216.5 137.4 229.8 144.6C237.5 147.6 244.7 149 251.5 149C259.4 149 268 146.6 277.5 141.9H279.3C283 142.7 284.9 144.5 284.9 147.3V148.7C284.9 154.6 274.5 158.9 253.7 161.6H250.7C228.5 161.6 210.8 151.2 197.3 130.4C192 120.7 189.3 110.5 189.3 99.7C189.3 77.1 200 59.1 221.4 45.7C231.7 40.5 241.4 38 250.6 38ZM201.9 97.3H299.8C299.8 88 295.7 77.8 287.6 66.7C276.4 56.2 265.4 51 254.4 51H249.2C232.9 51 219.5 58.9 209 74.8C205.3 81.2 203 88.7 201.9 97.3Z" fill="white"/>
<path d="M552.1 38C575.9 38 594.4 49.3 607.6 72C612.1 80.8 614.3 90.4 614.3 100.8V103C613.5 107.4 611.6 109.6 608.5 109.6H504.3C509 125.7 518 137.4 531.3 144.6C539 147.6 546.2 149 553 149C560.9 149 569.5 146.6 579 141.9H580.8C584.5 142.7 586.4 144.5 586.4 147.3V148.7C586.4 154.6 576 158.9 555.2 161.6H552.2C530.1 161.6 512.3 151.2 498.8 130.4C493.5 120.7 490.8 110.5 490.8 99.7C490.8 77.1 501.5 59.1 522.9 45.7C533.2 40.5 543 38 552.1 38ZM503.4 97.3H601.3C601.3 88 597.2 77.8 589.1 66.7C577.9 56.2 566.9 51 555.9 51H550.7C534.4 51 521 58.9 510.5 74.8C506.9 81.2 504.5 88.7 503.4 97.3Z" fill="white"/>
<path d="M656.2 37.2001C660.4 38.3001 662.5 39.9001 662.5 42.1001V59.7001C679.4 44.7001 695.4 37.1001 710.4 37.1001C718.5 37.1001 727 39.0001 735.9 42.8001C737.5 44.5001 738.3 46.1001 738.3 47.7001V48.0001C737.6 52.1001 735.7 54.1001 732.5 54.1001C723.8 51.3001 717.1 49.9001 712.3 49.9001H709.5C689.5 49.9001 674.8 60.3001 665.5 81.0001C663.5 86.6001 662.5 92.8001 662.5 99.8001V156.1C662.5 159.1 660.4 160.9 656.3 161.5H656C653 161.5 651 159.3 650.2 154.9V45.2001C650.8 39.9001 652.8 37.2001 656.2 37.2001Z" fill="white"/>
<path d="M420.1 17.9C420.1 27.8 412.1 35.8 402.2 35.8C392.3 35.8 384.3 27.8 384.3 17.9C384.3 8 392.3 0 402.2 0C412.1 0 420.1 8 420.1 17.9Z" fill="white"/>
</svg>
