<svg width="164" height="48" viewBox="0 0 164 48" fill="none" xmlns="http://www.w3.org/2000/svg">
<path d="M53.5354 18.8C54.5274 18.8 55.386 18.9653 56.1114 19.296C56.8474 19.6267 57.4127 20.096 57.8074 20.704C58.202 21.312 58.3994 22.032 58.3994 22.864C58.3994 23.6853 58.202 24.4053 57.8074 25.024C57.4127 25.632 56.8474 26.1013 56.1114 26.432C55.386 26.752 54.5274 26.912 53.5354 26.912H51.2794V30H48.6874V18.8H53.5354ZM53.3914 24.8C54.17 24.8 54.762 24.6347 55.1674 24.304C55.5727 23.9627 55.7754 23.4827 55.7754 22.864C55.7754 22.2347 55.5727 21.7547 55.1674 21.424C54.762 21.0827 54.17 20.912 53.3914 20.912H51.2794V24.8H53.3914ZM68.9021 21.392V30H66.5341V28.976C66.2035 29.3493 65.8088 29.6373 65.3501 29.84C64.8915 30.032 64.3955 30.128 63.8621 30.128C62.7315 30.128 61.8355 29.8027 61.1741 29.152C60.5128 28.5013 60.1821 27.536 60.1821 26.256V21.392H62.6781V25.888C62.6781 27.2747 63.2595 27.968 64.4221 27.968C65.0195 27.968 65.4995 27.776 65.8621 27.392C66.2248 26.9973 66.4061 26.416 66.4061 25.648V21.392H68.9021ZM71.2145 18.128H73.7105V30H71.2145V18.128ZM79.499 21.264C80.8323 21.264 81.8563 21.584 82.571 22.224C83.2857 22.8533 83.643 23.808 83.643 25.088V30H81.307V28.928C80.8377 29.728 79.963 30.128 78.683 30.128C78.0217 30.128 77.4457 30.016 76.955 29.792C76.475 29.568 76.107 29.2587 75.851 28.864C75.595 28.4693 75.467 28.0213 75.467 27.52C75.467 26.72 75.7657 26.0907 76.363 25.632C76.971 25.1733 77.9043 24.944 79.163 24.944H81.147C81.147 24.4 80.9817 23.984 80.651 23.696C80.3203 23.3973 79.8243 23.248 79.163 23.248C78.7043 23.248 78.251 23.3227 77.803 23.472C77.3657 23.6107 76.9923 23.8027 76.683 24.048L75.787 22.304C76.2563 21.9733 76.8163 21.7173 77.467 21.536C78.1283 21.3547 78.8057 21.264 79.499 21.264ZM79.307 28.448C79.7337 28.448 80.1123 28.352 80.443 28.16C80.7737 27.9573 81.0083 27.664 81.147 27.28V26.4H79.435C78.411 26.4 77.899 26.736 77.899 27.408C77.899 27.728 78.0217 27.984 78.267 28.176C78.523 28.3573 78.8697 28.448 79.307 28.448ZM88.286 22.528C88.5847 22.112 88.9847 21.7973 89.486 21.584C89.998 21.3707 90.5847 21.264 91.246 21.264V23.568C90.9687 23.5467 90.782 23.536 90.686 23.536C89.9713 23.536 89.4113 23.7387 89.006 24.144C88.6007 24.5387 88.398 25.136 88.398 25.936V30H85.902V21.392H88.286V22.528Z" fill="#00995D"/>
<path fill-rule="evenodd" clip-rule="evenodd" d="M113 25H124.865L121.232 29.36C120.878 29.784 120.936 30.415 121.36 30.768C121.785 31.122 122.415 31.064 122.769 30.64L127.769 24.64C127.808 24.593 127.827 24.538 127.856 24.486C127.88 24.444 127.909 24.408 127.927 24.362C127.972 24.247 127.999 24.126 127.999 24.004C127.999 24.003 128 24.001 128 24C128 23.999 127.999 23.997 127.999 23.996C127.999 23.874 127.972 23.753 127.927 23.638C127.909 23.592 127.88 23.556 127.856 23.514C127.827 23.462 127.808 23.407 127.769 23.36L122.769 17.36C122.57 17.123 122.286 17 122 17C121.774 17 121.547 17.076 121.36 17.232C120.936 17.585 120.878 18.216 121.232 18.64L124.865 23H113C112.448 23 112 23.448 112 24C112 24.552 112.448 25 113 25Z" fill="#00995D"/>
<rect x="0.5" y="0.5" width="163" height="47" rx="23.5" stroke="#00995D"/>
</svg>
