<?xml version="1.0" encoding="UTF-8"?>
<!DOCTYPE svg PUBLIC "-//W3C//DTD SVG 1.0//EN" "http://www.w3.org/TR/2001/REC-SVG-20010904/DTD/svg10.dtd">
<!-- Creator: CorelDRAW X8 -->
<svg xmlns="http://www.w3.org/2000/svg" xml:space="preserve" width="390px" height="73px" version="1.0" style="shape-rendering:geometricPrecision; text-rendering:geometricPrecision; image-rendering:optimizeQuality; fill-rule:evenodd; clip-rule:evenodd"
viewBox="0 0 8020132 1511446"
 xmlns:xlink="http://www.w3.org/1999/xlink">
 <defs>
  <style type="text/css">
   <![CDATA[
    .fil3 {fill:none}
    .fil0 {fill:#00995D}
    .fil4 {fill:#ffffff}
    .fil1 {fill:white;fill-opacity:0.000000}
    .fil2 {fill:#00995D}
   ]]>
  </style>
     <clipPath id="id0">
      <path d="M7633901 54473c-19352,-33697 -55239,-54473 -94100,-54473l-7431106 0c-83442,0 -135677,90250 -94108,162604l309682 539053c19219,33477 19219,74654 0,108131l-309682 539053c-41569,72362 10666,162605 94108,162605l7431106 0c38861,0 74748,-20777 94100,-54473l371801 -647185c19235,-33477 19235,-74654 0,-108131l-371801 -647184z"/>
     </clipPath>
     <clipPath id="id1">
      <path d="M7633901 54473c-19352,-33697 -55239,-54473 -94100,-54473l-7431106 0c-83442,0 -135677,90250 -94108,162604l309682 539053c19219,33477 19219,74654 0,108131l-309682 539053c-41569,72362 10666,162605 94108,162605l7431106 0c38861,0 74748,-20777 94100,-54473l371801 -647185c19235,-33477 19235,-74654 0,-108131l-371801 -647184z"/>
     </clipPath>
 </defs>
 <g id="Camada_x0020_1">
  <metadata id="CorelCorpID_0Corel-Layer"/>
  <g id="_1712024347600">
   <g filter="url(#filter1_d_4152_36634)">
    <path class="fil0" d="M7633901 54473c-19352,-33697 -55239,-54473 -94100,-54473l-7431106 0c-83442,0 -135677,90250 -94108,162604l309682 539053c19219,33477 19219,74654 0,108131l-309682 539053c-41569,72362 10666,162605 94108,162605l7431106 0c38861,0 74748,-20777 94100,-54473l371801 -647185c19235,-33477 19235,-74654 0,-108131l-371801 -647184z"/>
    <g style="clip-path:url(#id0)">
     <polygon class="fil1" points="0,0 8020132,0 8020132,1511446 0,1511446 "/>
    </g>
    <g style="clip-path:url(#id1)">
     <g>
      <path id="1" class="fil2" d="M324269 701657l-23539 13515 23539 -13515zm0 108131l23523 13515 0 0 -23523 -13515zm7681433 0l-23523 -13514 0 0 23523 13514zm0 -108131l-23523 13515 0 0 23523 -13515zm-7991115 647184l-23539 -13514 23539 13514zm7619314 -1294368l-23515 13514 23515 -13514zm0 1402500l-23515 -13515 23515 13515zm-7619314 -1294369l-23539 13522 0 0 23539 -13522zm94108 -135465l7431106 0 0 -54270 -7431106 0 0 54270zm239097 661004l-309682 -539053 -47062 27036 309682 539046 47062 -27029zm0 135160c24040,-41842 24040,-93310 0,-135160l-47062 27029c14430,25111 14430,55990 0,81102l47062 27029zm-309682 539053l309682 -539053 -47062 -27029 -309682 539053 47062 27029zm7501691 121959l-7431106 0 0 54261 7431106 0 0 -54261zm442378 -688041l-371793 647184 47062 27037 371793 -647192 -47062 -27029zm0 -81102c14430,25111 14430,55990 0,81102l47062 27029c24039,-41842 24039,-93310 0,-135160l-47062 27029zm-371793 -647185l371793 647185 47062 -27029 -371793 -647185 -47062 27029zm-7619338 1267340c-51945,90446 13334,203249 117647,203249l0 -54261c-62596,0 -101770,-67690 -70585,-121959l-47062 -27029zm7548753 -1308188c29157,0 56069,15580 70585,40848l47062 -27029c-24204,-42124 -69075,-68089 -117647,-68089l0 54270zm0 1511437c48572,0 93443,-25964 117647,-68081l-47062 -27037c-14516,25269 -41428,40857 -70585,40857l0 54261zm-7431106 -1565707c-104313,0 -169592,112804 -117647,203257l47062 -27036c-31185,-54270 7989,-121951 70585,-121951l0 -54270z"/>
     </g>
    </g>
    <path class="fil3" d="M7633901 54473c-19352,-33697 -55239,-54473 -94100,-54473l-7431106 0c-83442,0 -135677,90250 -94108,162604l309682 539053c19219,33477 19219,74654 0,108131l-309682 539053c-41569,72362 10666,162605 94108,162605l7431106 0c38861,0 74748,-20777 94100,-54473l371801 -647185c19235,-33477 19235,-74654 0,-108131l-371801 -647184z"/>
   </g>
   <path class="fil4" d="M1126850 716502l-94585 124228c-3889,5110 -9915,8131 -16332,8178l-149 0c-6354,0 -12356,-2943 -16292,-7951l-50357 -64333c-7035,-8983 -5462,-22005 3545,-29047 8984,-7059 22029,-5486 29072,3537l33806 43196 78347 -102881c6918,-9093 19900,-10877 29033,-3936 9085,6933 10846,19916 3912,29009zm-88927 -157463c-114353,0 -207053,92692 -207053,207045 0,114337 92700,207052 207053,207052 114352,0 207044,-92715 207044,-207052 0,-114353 -92692,-207045 -207044,-207045z"/>
   <path class="fil4" d="M1677117 869598l-23108 -55153 -127460 0 -23101 55153 -51804 0 114415 -260875 51804 0 112921 260875 -53667 0zm-132680 -98013l91683 0 -45466 -109571 -46217 109571zm333574 -102865c18640,0 35034,4351 49198,13045 14407,8451 25464,20377 33172,35778 7951,15408 11926,33172 11926,53298 0,19877 -3858,37390 -11558,52548 -7700,15158 -18632,26959 -32796,35402 -14164,8452 -30558,12670 -49191,12670 -14907,0 -28077,-2857 -39510,-8569 -11425,-5963 -20871,-14532 -28320,-25715l0 104728 -48447 0 0 -271690 48447 0 0 32796c7207,-11183 16394,-19626 27576,-25347 11433,-5963 24596,-8944 39503,-8944zm-10807 161000c16402,0 29815,-5588 40254,-16770 10431,-11425 15651,-25965 15651,-43603 0,-17639 -5220,-32053 -15651,-43228 -10439,-11182 -23852,-16777 -40254,-16777 -16645,0 -30182,5595 -40622,16777 -10431,11175 -15650,25589 -15650,43228 0,17889 5219,32420 15650,43603 10440,11182 23977,16770 40622,16770zm148949 -236656l48455 0 0 276534 -48455 0 0 -276534zm110604 77151l48455 0 0 199383 -48455 0 0 -199383zm23852 -85720c7951,0 14540,2731 19759,8201 5212,5462 7825,12419 7825,20870 0,8202 -2613,15033 -7825,20495 -5219,5470 -11808,8201 -19759,8201 -7951,0 -14532,-2731 -19751,-8201 -5212,-5462 -7826,-12293 -7826,-20495 0,-8451 2614,-15408 7826,-20870 5219,-5470 11800,-8201 19751,-8201zm221748 148698c-13412,-14657 -30808,-21981 -52172,-21981 -16151,0 -29321,5462 -39502,16394 -9938,10932 -14908,25096 -14908,42484 0,17889 4970,32303 14908,43236 10181,10932 23351,16394 39502,16394 23852,0 41741,-7826 53667,-23476l30183 24970c-8945,12920 -20745,22858 -35402,29815 -14657,6957 -31678,10432 -51061,10432 -19626,0 -37140,-4218 -52548,-12670 -15150,-8443 -26958,-20244 -35402,-35402 -8451,-15408 -12669,-33047 -12669,-52923 0,-20127 4218,-37891 12669,-53291 8694,-15408 20620,-27334 35778,-35778 15400,-8451 33046,-12677 52923,-12677 18131,0 34283,3232 48447,9696 14407,6205 26090,15150 35034,26833l-29447 27944zm184070 136405l0 -24220c-6957,8694 -15902,15276 -26834,19752 -10932,4468 -23484,6706 -37640,6706 -13913,0 -26215,-2606 -36897,-7825 -10439,-5470 -18515,-12920 -24227,-22365 -5713,-9438 -8569,-19994 -8569,-31678 0,-18632 6581,-33164 19751,-43603 13171,-10681 31803,-16151 55905,-16394l58135 0 0 -5219c0,-11676 -3850,-20746 -11550,-27209 -7701,-6456 -18883,-9688 -33540,-9688 -18883,0 -38642,6213 -59262,18632l-17513 -33540c15651,-8694 29815,-14907 42484,-18632 12920,-3975 27952,-5963 45098,-5963 25839,0 45841,6206 59997,18632 14415,12419 21739,29815 21990,52180l375 130434 -47703 0zm-52924 -35026c13914,0 25840,-3232 35778,-9696 9938,-6706 15526,-14908 16770,-24595l0 -17889 -50310 0c-12919,0 -22490,1987 -28695,5963 -5963,3725 -8945,9938 -8945,18632 0,8451 3107,15158 9312,20127 6464,4969 15158,7458 26090,7458zm323823 -3358c-7700,11183 -17638,20127 -29814,26834 -12177,6706 -26090,10932 -41741,12669l-7082 18632c10439,1745 18139,5220 23108,10439 4969,5463 7450,11926 7450,19376 0,10932 -4218,19258 -12669,24971 -8201,5963 -18758,8944 -31677,8944 -12177,0 -24596,-2605 -37273,-7825l8945 -26090c7708,2739 14790,4101 21246,4101 4718,0 8451,-869 11182,-2606 2731,-1737 4101,-3850 4101,-6339 0,-2731 -1620,-4969 -4844,-6706 -3232,-1737 -7834,-2606 -13797,-2606l-11174 0 11550 -34659c-16895,-2238 -31802,-7833 -44722,-16777 -12669,-8945 -22482,-20495 -29439,-34659 -6957,-14407 -10439,-30558 -10439,-48447 0,-20127 4225,-37891 12669,-53291 8702,-15408 20628,-27334 35778,-35778 15408,-8451 33046,-12677 52923,-12677 18139,0 34291,3232 48447,9696 14414,6205 26090,15150 35034,26833l-29439 27944c-13420,-14657 -30808,-21981 -52180,-21981 -16143,0 -29314,5462 -39502,16394 -9939,10932 -14908,25096 -14908,42484 0,17889 4969,32303 14908,43236 10188,10932 23359,16394 39502,16394 23852,0 41741,-7826 53667,-23476l30190 24970zm152385 38384l0 -24220c-6957,8694 -15902,15276 -26834,19752 -10932,4468 -23476,6706 -37640,6706 -13914,0 -26215,-2606 -36897,-7825 -10431,-5470 -18507,-12920 -24219,-22365 -5721,-9438 -8577,-19994 -8577,-31678 0,-18632 6589,-33164 19751,-43603 13170,-10681 31803,-16151 55905,-16394l58143 0 0 -5219c0,-11676 -3858,-20746 -11558,-27209 -7701,-6456 -18883,-9688 -33540,-9688 -18883,0 -38634,6213 -59254,18632l-17521 -33540c15651,-8694 29815,-14907 42484,-18632 12920,-3975 27952,-5963 45098,-5963 25839,0 45841,6206 60005,18632 14407,12419 21739,29815 21989,52180l368 130434 -47703 0zm-52916 -35026c13906,0 25832,-3232 35770,-9696 9938,-6706 15533,-14908 16778,-24595l0 -17889 -50318 0c-12919,0 -22482,1987 -28695,5963 -5963,3725 -8945,9938 -8945,18632 0,8451 3107,15158 9320,20127 6456,4969 15150,7458 26090,7458zm76400 -241508c0,34784 -10933,52180 -32797,52180 -5470,0 -10814,-994 -16026,-2982 -4969,-1987 -10564,-4718 -16770,-8201 -7951,-4468 -13546,-6706 -16778,-6706 -3725,0 -6330,1487 -7825,4468 -1487,2739 -2230,6840 -2230,12302l-30934 0c0,-35035 10807,-52548 32421,-52548 5470,0 10681,994 15650,2982 5220,1987 10932,4718 17146,8201 7950,4468 13538,6706 16770,6706 3725,0 6338,-1369 7825,-4101 1495,-2981 2238,-7082 2238,-12301l31310 0zm165781 75656c20620,0 38759,4226 54410,12677 15901,8444 28203,20370 36897,35778 8944,15150 13412,32671 13412,52547 0,20127 -4468,37891 -13412,53291 -8694,15409 -20996,27335 -36897,35778 -15651,8452 -33790,12670 -54410,12670 -20871,0 -39260,-4218 -55162,-12670 -15901,-8443 -28320,-20369 -37264,-35778 -8694,-15400 -13045,-33164 -13045,-53291 0,-19876 4351,-37397 13045,-52547 8944,-15408 21363,-27334 37264,-35778 15902,-8451 34291,-12677 55162,-12677zm0 41373c-16895,0 -30558,5587 -40998,16770 -10431,11182 -15650,25714 -15650,43603 0,17889 5219,32420 15650,43603 10440,11182 24103,16770 40998,16770 16394,0 29815,-5588 40246,-16770 10439,-11183 15658,-25714 15658,-43603 0,-17889 -5219,-32421 -15658,-43603 -10431,-11183 -23852,-16770 -40246,-16770zm430467 -117029l0 276534 -48447 0 0 -32045c-7207,11175 -16519,19751 -27952,25714 -11182,5713 -24220,8569 -39127,8569 -18883,0 -35535,-4226 -49942,-12669 -14164,-8694 -25221,-20745 -33172,-36154 -7950,-15650 -11926,-33539 -11926,-53666 0,-19877 3851,-37390 11559,-52548 7950,-15408 19000,-27334 33164,-35778 14414,-8451 30808,-12669 49198,-12669 15150,0 28445,2982 39878,8945 11425,5963 20871,14531 28320,25714l0 -109947 48447 0zm-105095 238150c16645,0 30191,-5587 40622,-16769 10682,-11433 16026,-26090 16026,-43979 0,-17889 -5344,-32421 -16026,-43603 -10431,-11433 -23977,-17146 -40622,-17146 -16644,0 -30190,5713 -40621,17146 -10440,11182 -15776,25714 -16027,43603 251,17889 5587,32546 16027,43979 10431,11182 23977,16769 40621,16769zm250304 -162494c31802,0 55654,9070 71555,27209 16144,18139 24220,43603 24220,76399 0,6464 -125,11308 -368,14540l-147212 0c3225,14156 9814,25339 19752,33540 10188,7950 22607,11925 37264,11925 10189,0 19877,-1862 29072,-5595 9445,-3975 17638,-9562 24595,-16770l26090 27209c-9938,10933 -22115,19376 -36521,25339 -14164,5963 -29940,8945 -47336,8945 -20370,0 -38384,-4218 -54035,-12670 -15408,-8443 -27334,-20244 -35777,-35402 -8452,-15408 -12670,-33047 -12670,-52923 0,-19877 4218,-37515 12670,-52923 8694,-15401 20745,-27327 36145,-35778 15408,-8694 32922,-13045 52556,-13045zm51428 85719c-501,-14657 -5345,-26332 -14539,-35034 -9187,-8694 -21364,-13045 -36522,-13045 -14164,0 -26089,4351 -35777,13045 -9438,8452 -15276,20127 -17514,35034l104352 0zm150146 -145716l212804 0 0 44346 -81243 0 0 216529 -50310 0 0 -216529 -81251 0 0 -44346zm303579 59997c31802,0 55654,9070 71555,27209 16144,18139 24220,43603 24220,76399 0,6464 -125,11308 -368,14540l-147211 0c3224,14156 9813,25339 19751,33540 10189,7950 22608,11925 37265,11925 10188,0 19876,-1862 29071,-5595 9445,-3975 17639,-9562 24595,-16770l26090 27209c-9938,10933 -22114,19376 -36521,25339 -14164,5963 -29940,8945 -47336,8945 -20369,0 -38383,-4218 -54034,-12670 -15408,-8443 -27334,-20244 -35778,-35402 -8451,-15408 -12669,-33047 -12669,-52923 0,-19877 4218,-37515 12669,-52923 8694,-15401 20745,-27327 36146,-35778 15408,-8694 32921,-13045 52555,-13045zm51429 85719c-501,-14657 -5345,-26332 -14540,-35034 -9187,-8694 -21363,-13045 -36521,-13045 -14164,0 -26090,4351 -35778,13045 -9437,8452 -15275,20127 -17513,35034l104352 0zm204164 -30190c-9688,-5713 -19751,-10181 -30182,-13413 -10189,-3232 -19626,-4844 -28328,-4844 -8193,0 -14782,1487 -19752,4469 -4718,2739 -7082,7082 -7082,13045 0,6213 2982,11057 8945,14539 6213,3224 15901,6707 29071,10431 13914,4226 25347,8452 34291,12670 8945,3975 16645,10063 23101,18264 6714,7951 10063,18507 10063,31678 0,19383 -7450,34290 -22357,44722 -14907,10439 -33665,15651 -56280,15651 -15401,0 -30433,-2356 -45090,-7075 -14665,-4969 -27084,-11926 -37273,-20870l16770 -33915c8945,7700 19634,13788 32053,18256 12427,4226 24228,6339 35402,6339 8945,0 16027,-1495 21246,-4476 5470,-3224 8201,-7951 8201,-14156 0,-6957 -3106,-12177 -9320,-15659 -6213,-3474 -16269,-7325 -30182,-11550 -13421,-3976 -24353,-7826 -32797,-11551 -8451,-3975 -15784,-9820 -21989,-17521 -6213,-7950 -9320,-18256 -9320,-30933 0,-19627 7082,-34534 21246,-44723 14406,-10431 32420,-15650 54034,-15650 13170,0 26090,1862 38759,5587 12920,3733 24353,8944 34291,15658l-17521 35027zm178294 133055c-15901,9688 -32553,14532 -49941,14532 -17146,0 -31185,-4969 -42117,-14907 -10932,-10189 -16394,-25096 -16394,-44722l0 -98389 -27952 0 -376 -35402 28328 0 0 -54786 48072 0 0 54786 57023 0 0 35402 -57023 0 0 89820c0,9187 1745,15776 5219,19751 3482,3725 8694,5587 15651,5587 7457,0 16895,-2731 28328,-8201l11182 36529zm119322 -188584c31803,0 55654,9070 71556,27209 16143,18139 24219,43603 24219,76399 0,6464 -125,11308 -368,14540l-147211 0c3232,14156 9813,25339 19751,33540 10189,7950 22608,11925 37265,11925 10189,0 19876,-1862 29071,-5595 9445,-3975 17639,-9562 24595,-16770l26090 27209c-9938,10933 -22114,19376 -36521,25339 -14164,5963 -29940,8945 -47328,8945 -20377,0 -38391,-4218 -54042,-12670 -15408,-8443 -27334,-20244 -35778,-35402 -8451,-15408 -12669,-33047 -12669,-52923 0,-19877 4218,-37515 12669,-52923 8694,-15401 20745,-27327 36154,-35778 15400,-8694 32913,-13045 52547,-13045zm51429 85719c-501,-14657 -5345,-26332 -14532,-35034 -9195,-8694 -21371,-13045 -36529,-13045 -14156,0 -26082,4351 -35778,13045 -9437,8452 -15275,20127 -17513,35034l104352 0z"/>
  </g>
 </g>
</svg>
