<?xml version="1.0" encoding="UTF-8"?>
<!DOCTYPE svg PUBLIC "-//W3C//DTD SVG 1.0//EN" "http://www.w3.org/TR/2001/REC-SVG-20010904/DTD/svg10.dtd">
<!-- Creator: CorelDRAW X8 -->
<svg xmlns="http://www.w3.org/2000/svg" xml:space="preserve" width="390px" height="73px" version="1.0" style="shape-rendering:geometricPrecision; text-rendering:geometricPrecision; image-rendering:optimizeQuality; fill-rule:evenodd; clip-rule:evenodd"
viewBox="0 0 4517265 851308"
 xmlns:xlink="http://www.w3.org/1999/xlink">
 <defs>
  <style type="text/css">
   <![CDATA[
    .fil3 {fill:none}
    .fil0 {fill:#00995D}
    .fil1 {fill:#00995D;fill-opacity:0.000000}
    .fil2 {fill:#00995D}
   ]]>
  </style>
    <clipPath id="id0">
     <path d="M4299724 30681c-10900,-18979 -31113,-30681 -53001,-30681l-4185502 0c-46998,0 -76418,50833 -53005,91585l174426 303617c10825,18855 10825,42048 0,60904l-174426 303616c-23413,40757 6007,91586 53005,91586l4185502 0c21888,0 42101,-11702 53001,-30682l209413 -364520c10834,-18856 10834,-42049 0,-60904l-209413 -364521z"/>
    </clipPath>
    <clipPath id="id1">
     <path d="M4299724 30681c-10900,-18979 -31113,-30681 -53001,-30681l-4185502 0c-46998,0 -76418,50833 -53005,91585l174426 303617c10825,18855 10825,42048 0,60904l-174426 303616c-23413,40757 6007,91586 53005,91586l4185502 0c21888,0 42101,-11702 53001,-30682l209413 -364520c10834,-18856 10834,-42049 0,-60904l-209413 -364521z"/>
    </clipPath>
 </defs>
 <g id="Camada_x0020_1">
  <metadata id="CorelCorpID_0Corel-Layer"/>
  <g id="_2270143583744" filter="url(#filter1_d_4152_30511)">
   <path class="fil0" d="M4299724 30681c-10900,-18979 -31113,-30681 -53001,-30681l-4185502 0c-46998,0 -76418,50833 -53005,91585l174426 303617c10825,18855 10825,42048 0,60904l-174426 303616c-23413,40757 6007,91586 53005,91586l4185502 0c21888,0 42101,-11702 53001,-30682l209413 -364520c10834,-18856 10834,-42049 0,-60904l-209413 -364521z"/>
   <g style="clip-path:url(#id0)">
    <polygon class="fil1" points="0,0 4517265,0 4517265,851308 0,851308 "/>
   </g>
   <g style="clip-path:url(#id1)">
    <g>
     <path id="1" class="fil2" d="M182642 395202l-13258 7612 13258 -7612zm0 60904l13249 7612 0 0 -13249 -7612zm4326495 0l-13249 -7612 0 0 13249 7612zm0 -60904l-13249 7612 0 0 13249 -7612zm-4500921 364520l-13258 -7611 13258 7611zm4291508 -729041l-13245 7612 13245 -7612zm0 789945l-13245 -7611 13245 7611zm-4291508 -729041l-13258 7617 0 0 13258 -7617zm53005 -76299l4185502 0 0 -30567 -4185502 0 0 30567zm134670 372304l-174426 -303617 -26507 15229 174426 303612 26507 -15224zm0 76128c13540,-23568 13540,-52556 0,-76128l-26507 15224c8127,14144 8127,31536 0,45680l26507 15224zm-174426 303616l174426 -303616 -26507 -15224 -174426 303617 26507 15223zm4225258 68693l-4185502 0 0 30562 4185502 0 0 -30562zm249165 -387533l-209409 364521 26507 15228 209409 -364525 -26507 -15224zm0 -45680c8128,14144 8128,31536 0,45680l26507 15224c13540,-23568 13540,-52556 0,-76128l-26507 15224zm-209409 -364521l209409 364521 26507 -15224 -209409 -364521 -26507 15224zm-4291521 713818c-29258,50942 7510,114478 66263,114478l0 -30562c-35256,0 -57320,-38126 -39756,-68693l-26507 -15223zm4251765 -736825c16422,0 31580,8775 39756,23007l26507 -15224c-13632,-23726 -38905,-38350 -66263,-38350l0 30567zm0 851303c27358,0 52631,-14625 66263,-38346l-26507 -15228c-8176,14232 -23334,23012 -39756,23012l0 30562zm-4185502 -881870c-58753,0 -95521,63535 -66263,114483l26507 -15229c-17564,-30566 4500,-68687 39756,-68687l0 -30567z"/>
    </g>
   </g>
   <path class="fil3" d="M4299724 30681c-10900,-18979 -31113,-30681 -53001,-30681l-4185502 0c-46998,0 -76418,50833 -53005,91585l174426 303617c10825,18855 10825,42048 0,60904l-174426 303616c-23413,40757 6007,91586 53005,91586l4185502 0c21888,0 42101,-11702 53001,-30682l209413 -364520c10834,-18856 10834,-42049 0,-60904l-209413 -364521z"/>
  </g>
 </g>
</svg>
