<?xml version="1.0" encoding="UTF-8"?>
<!DOCTYPE svg PUBLIC "-//W3C//DTD SVG 1.0//EN" "http://www.w3.org/TR/2001/REC-SVG-20010904/DTD/svg10.dtd">
<!-- Creator: CorelDRAW X8 -->
<svg xmlns="http://www.w3.org/2000/svg" xml:space="preserve" width="390px" height="79px" version="1.0" style="shape-rendering:geometricPrecision; text-rendering:geometricPrecision; image-rendering:optimizeQuality; fill-rule:evenodd; clip-rule:evenodd"
viewBox="0 0 2979486 606199"
 xmlns:xlink="http://www.w3.org/1999/xlink">
 <defs>
  <style type="text/css">
   <![CDATA[
    .str0 {stroke:#00995D;stroke-width:15296.8}
    .fil3 {fill:none}
    .fil0 {fill:#FEFEFE}
    .fil1 {fill:white;fill-opacity:0.000000}
    .fil2 {fill:#EEEEEE}
   ]]>
  </style>
    <clipPath id="id0">
     <path d="M13345 71219c-16254,-28287 4167,-63571 36789,-63571l2879206 0c23474,0 42497,18999 42497,42434l0 506036c0,23434 -19023,42433 -42497,42433l-2879206 0c-32622,0 -53043,-35281 -36789,-63571l121068 -210743c7520,-13088 7520,-29187 0,-42274l-121068 -210744z"/>
    </clipPath>
    <clipPath id="id1">
     <path d="M13345 71219c-16254,-28287 4167,-63571 36789,-63571l2879206 0c23474,0 42497,18999 42497,42434l0 506036c0,23434 -19023,42433 -42497,42433l-2879206 0c-32622,0 -53043,-35281 -36789,-63571l121068 -210743c7520,-13088 7520,-29187 0,-42274l-121068 -210744z"/>
    </clipPath>
 </defs>
 <g id="Camada_x0020_1">
  <metadata id="CorelCorpID_0Corel-Layer"/>
  <g id="_2270147229664" filter="url(#filter2_d_4152_30511)">
   <path class="fil0 str0" d="M13345 71219c-16254,-28287 4167,-63571 36789,-63571l2879206 0c23474,0 42497,18999 42497,42434l0 506036c0,23434 -19023,42433 -42497,42433l-2879206 0c-32622,0 -53043,-35281 -36789,-63571l121068 -210743c7520,-13088 7520,-29187 0,-42274l-121068 -210744z"/>
   <g style="clip-path:url(#id0)">
    <polygon class="fil1" points="7639,7648 2971837,7648 2971837,598551 7639,598551 "/>
   </g>
   <g style="clip-path:url(#id1)">
    <g>
     <path id="1" class="fil2" d="M134413 324237l9196 5283 -9196 -5283zm0 -42274l-9203 5283 9203 -5283zm2794927 -284921l-2879206 0 0 21216 2879206 0 0 -21216zm53101 559076l0 -506036 -21211 0 0 506036 21211 0zm-2932307 53040l2879206 0 0 -21214 -2879206 0 0 21214zm75076 -290205l-121062 210744 18390 10567 121071 -210744 -18399 -10567zm0 -31707c5642,9817 5642,21890 0,31707l18399 10567c9399,-16358 9399,-36480 0,-52841l-18399 10567zm-121062 -210741l121062 210741 18399 -10567 -121071 -210744 -18390 10570zm45986 511439c-24463,0 -39784,-26463 -27596,-47680l-18390 -10567c-20317,35360 5204,79461 45986,79461l0 -21214zm2911096 -31826c0,17576 -14244,31826 -31890,31826l0 21214c29302,0 53101,-23747 53101,-53040l-21211 0zm-2911096 -559076c-40782,0 -66303,44100 -45986,79463l18390 -10570c-12188,-21216 3133,-47677 27596,-47677l0 -21216zm2879206 21216c17646,0 31890,14248 31890,31824l21211 0c0,-29294 -23799,-53040 -53101,-53040l0 21216z"/>
    </g>
   </g>
   <path class="fil3 str0" d="M13345 71219c-16254,-28287 4167,-63571 36789,-63571l2879206 0c23474,0 42497,18999 42497,42434l0 506036c0,23434 -19023,42433 -42497,42433l-2879206 0c-32622,0 -53043,-35281 -36789,-63571l121068 -210743c7520,-13088 7520,-29187 0,-42274l-121068 -210744z"/>
  </g>
 </g>
</svg>
