<?xml version="1.0" encoding="UTF-8"?>
<!DOCTYPE svg PUBLIC "-//W3C//DTD SVG 1.0//EN" "http://www.w3.org/TR/2001/REC-SVG-20010904/DTD/svg10.dtd">
<!-- Creator: CorelDRAW X8 -->
<svg xmlns="http://www.w3.org/2000/svg" xml:space="preserve" width="390px" height="78px" version="1.0" style="shape-rendering:geometricPrecision; text-rendering:geometricPrecision; image-rendering:optimizeQuality; fill-rule:evenodd; clip-rule:evenodd"
viewBox="0 0 2975856 593226"
 xmlns:xlink="http://www.w3.org/1999/xlink">
 <defs>
  <style type="text/css">
   <![CDATA[
    .fil3 {fill:none}
    .fil0 {fill:#FAFAFA}
    .fil1 {fill:white;fill-opacity:0.000000}
    .fil2 {fill:#EEEEEE}
   ]]>
  </style>
    <clipPath id="id0">
     <path d="M5728 63820c-16318,-28398 4183,-63820 36934,-63820l2890529 0c23567,0 42665,19073 42665,42600l0 508026c0,23527 -19098,42600 -42665,42600l-2890529 0c-32751,0 -53252,-35419 -36934,-63820l121544 -211573c7550,-13139 7550,-29301 0,-42440l-121544 -211573z"/>
    </clipPath>
    <clipPath id="id1">
     <path d="M5728 63820c-16318,-28398 4183,-63820 36934,-63820l2890529 0c23567,0 42665,19073 42665,42600l0 508026c0,23527 -19098,42600 -42665,42600l-2890529 0c-32751,0 -53252,-35419 -36934,-63820l121544 -211573c7550,-13139 7550,-29301 0,-42440l-121544 -211573z"/>
    </clipPath>
 </defs>
 <g id="Camada_x0020_1">
  <metadata id="CorelCorpID_0Corel-Layer"/>
  <g id="_2269981473136" filter="url(#filter2_d_4152_30511)">
   <path class="fil0" d="M5728 63820c-16318,-28398 4183,-63820 36934,-63820l2890529 0c23567,0 42665,19073 42665,42600l0 508026c0,23527 -19098,42600 -42665,42600l-2890529 0c-32751,0 -53252,-35419 -36934,-63820l121544 -211573c7550,-13139 7550,-29301 0,-42440l-121544 -211573z"/>
   <g style="clip-path:url(#id0)">
    <polygon class="fil1" points="0,0 2975856,0 2975856,593226 0,593226 "/>
   </g>
   <g style="clip-path:url(#id1)">
    <g>
     <path id="1" class="fil2" d="M127272 317833l9233 5305 -9233 -5305zm0 -42440l-9239 5304 9239 -5304zm2805919 -286042l-2890529 0 0 21301 2890529 0 0 -21301zm53310 561275l0 -508026 -21293 0 0 508026 21293 0zm-2943839 53249l2890529 0 0 -21297 -2890529 0 0 21297zm75371 -291346l-121537 211573 18462 10608 121547 -211572 -18472 -10609zm0 -31832c5664,9856 5664,21976 0,31832l18472 10609c9435,-16423 9435,-36624 0,-53049l-18472 10608zm-121537 -211569l121537 211569 18472 -10608 -121547 -211573 -18462 10612zm46166 513450c-24559,0 -39941,-26568 -27704,-47868l-18462 -10608c-20398,35499 5224,79773 46166,79773l0 -21297zm2922546 -31952c0,17645 -14301,31952 -32017,31952l0 21297c29418,0 53310,-23840 53310,-53249l-21293 0zm-2922546 -561275c-40942,0 -66564,44275 -46166,79777l18462 -10612c-12237,-21300 3145,-47864 27704,-47864l0 -21301zm2890529 21301c17716,0 32017,14303 32017,31948l21293 0c0,-29408 -23892,-53249 -53310,-53249l0 21301z"/>
    </g>
   </g>
   <path class="fil3" d="M5728 63820c-16318,-28398 4183,-63820 36934,-63820l2890529 0c23567,0 42665,19073 42665,42600l0 508026c0,23527 -19098,42600 -42665,42600l-2890529 0c-32751,0 -53252,-35419 -36934,-63820l121544 -211573c7550,-13139 7550,-29301 0,-42440l-121544 -211573z"/>
  </g>
 </g>
</svg>
