<?xml version="1.0" encoding="UTF-8"?>
<!DOCTYPE svg PUBLIC "-//W3C//DTD SVG 1.0//EN" "http://www.w3.org/TR/2001/REC-SVG-20010904/DTD/svg10.dtd">
<!-- Creator: CorelDRAW X8 -->
<svg xmlns="http://www.w3.org/2000/svg" xml:space="preserve" width="390px" height="73px" version="1.0" style="shape-rendering:geometricPrecision; text-rendering:geometricPrecision; image-rendering:optimizeQuality; fill-rule:evenodd; clip-rule:evenodd"
viewBox="0 0 9532143 1783468"
 xmlns:xlink="http://www.w3.org/1999/xlink">
 <defs>
  <style type="text/css">
   <![CDATA[
    .fil3 {fill:none}
    .fil0 {fill:#00995D}
    .fil4 {fill:#ffffff}
    .fil1 {fill:white;fill-opacity:0.0000}
    .fil2 {fill:#00995D}
   ]]>
  </style>
     <clipPath id="id0">
      <path d="M0 128073c0,-70731 57342,-128073 128073,-128073l8837291 0c45855,0 88201,24516 111046,64276l438724 763662c22678,39502 22678,88090 0,127592l-438724 763661c-22845,39761 -65191,64277 -111046,64277l-8837291 0c-70731,0 -128073,-57342 -128073,-128073l0 -1527322z"/>
     </clipPath>
     <clipPath id="id1">
      <path d="M0 128073c0,-70731 57342,-128073 128073,-128073l8837291 0c45855,0 88201,24516 111046,64276l438724 763662c22678,39502 22678,88090 0,127592l-438724 763661c-22845,39761 -65191,64277 -111046,64277l-8837291 0c-70731,0 -128073,-57342 -128073,-128073l0 -1527322z"/>
     </clipPath>
 </defs>
 <g id="Camada_x0020_1">
  <metadata id="CorelCorpID_0Corel-Layer"/>
  <g id="_1748032764688">
   <g filter="url(#filter0_d_4152_30511)">
    <path class="fil0" d="M0 128073c0,-70731 57342,-128073 128073,-128073l8837291 0c45855,0 88201,24516 111046,64276l438724 763662c22678,39502 22678,88090 0,127592l-438724 763661c-22845,39761 -65191,64277 -111046,64277l-8837291 0c-70731,0 -128073,-57342 -128073,-128073l0 -1527322z"/>
    <g style="clip-path:url(#id0)">
     <polygon class="fil1" points="0,0 9532143,0 9532143,1783468 0,1783468 "/>
    </g>
    <g style="clip-path:url(#id1)">
     <g>
      <path id="1" class="fil2" d="M9515134 827938l-27775 15946 0 0 27775 -15946zm0 127592l-27775 -15947 0 0 27775 15947zm-438724 763661l-27757 -15946 27757 15946zm0 -1654915l-27757 15947 27757 -15947zm-111046 -96290l-8837291 0 0 64037 8837291 0 0 -64037zm83289 112237l438706 763661 55532 -31893 -438706 -763661 -55532 31893zm438706 763661c17027,29632 17027,66068 0,95699l55532 31894c28366,-49373 28366,-110104 0,-159486l-55532 31893zm0 95699l-438706 763662 55532 31902 438706 -763670 -55532 -31894zm-9359286 875898l8837291 0 0 -64027 -8837291 0 0 64027zm-160087 -1687408l0 1527322 64037 0 0 -1527322 -64037 0zm9080667 1575172c-17129,29816 -48884,48209 -83289,48209l0 64027c57314,0 110261,-30637 138821,-80334l-55532 -31902zm-8920580 -1735259c-88414,0 -160087,71673 -160087,160087l64037 0c0,-53049 43001,-96050 96050,-96050l0 -64037zm0 1783468c-53049,0 -96050,-43011 -96050,-96059l-64037 0c0,88414 71673,160086 160087,160086l0 -64027zm8837291 -1719431c34405,0 66160,18384 83289,48200l55532 -31893c-28560,-49706 -81507,-80344 -138821,-80344l0 64037z"/>
     </g>
    </g>
    <path class="fil3" d="M0 128073c0,-70731 57342,-128073 128073,-128073l8837291 0c45855,0 88201,24516 111046,64276l438724 763662c22678,39502 22678,88090 0,127592l-438724 763661c-22845,39761 -65191,64277 -111046,64277l-8837291 0c-70731,0 -128073,-57342 -128073,-128073l0 -1527322z"/>
   </g>
   <path class="fil4" d="M1166550 845454l-111600 146586c-4589,6030 -11699,9594 -19280,9650l-166 0c-7498,0 -14589,-3472 -19225,-9382l-59419 -75911c-8311,-10600 -6455,-25965 4173,-34275 10610,-8329 26003,-6473 34304,4173l39899 50971 92449 -121397c8153,-10729 23472,-12835 34248,-4644 10729,8181 12807,23500 4617,34229zm-104933 -185802c-134933,0 -244307,109374 -244307,244307 0,134915 109374,244317 244307,244317 134933,0 244317,-109402 244317,-244317 0,-134933 -109384,-244307 -244317,-244307z"/>
   <path class="fil4" d="M1588044 718277l225600 0 0 51451 -166670 0 0 76077 149523 0 0 51451 -149523 0 0 77397 171952 0 0 51451 -230882 0 0 -307827zm430147 70362c26971,0 48228,8209 63768,24626 15531,16122 23306,38108 23306,65957l0 146882 -57609 0 0 -130169c0,-16417 -4691,-29317 -14073,-38698 -9381,-9677 -22133,-14507 -38255,-14507 -19059,286 -34156,6741 -45301,19345 -10850,12604 -16270,28736 -16270,48376l0 115653 -57166 0 0 -235268 57166 0 0 43972c16122,-30195 44267,-45588 84434,-46169zm288925 222959c-18763,11431 -38404,17147 -58921,17147 -20231,0 -36797,-5864 -49696,-17591 -12900,-12022 -19345,-29612 -19345,-52771l0 -116096 -32983 0 -443 -41774 33426 0 0 -64645 56723 0 0 64645 67286 0 0 41774 -67286 0 0 105985c0,10841 2050,18616 6159,23306 4100,4396 10259,6593 18467,6593 8800,0 19936,-3222 33427,-9677l13186 43104zm102061 -175470c7913,-15245 18615,-26824 32096,-34737 13777,-8209 29761,-12466 47933,-12752l0 55402c-24331,-1458 -43824,4257 -58487,17157 -14368,12604 -21542,29760 -21542,51450l0 113456 -57185 0 0 -235268 57185 0 0 45292zm218240 -47055c37526,0 65671,10702 84434,32106 19058,21404 28578,51450 28578,90149 0,7627 -138,13343 -434,17156l-173706 0c3814,16704 11579,29899 23306,39576 12023,9382 26677,14073 43981,14073 12013,0 23454,-2198 34294,-6603 11145,-4690 20822,-11283 29031,-19788l30776 32106c-11727,12900 -26085,22863 -43094,29899 -16713,7036 -35328,10555 -55846,10555 -24044,0 -45301,-4977 -63768,-14950 -18172,-9963 -32244,-23888 -42217,-41774 -9963,-18181 -14949,-38994 -14949,-62448 0,-23453 4986,-44266 14949,-62448 10259,-18172 24479,-32244 42660,-42217 18172,-10258 38847,-15392 62005,-15392zm60684 101147c-581,-17295 -6306,-31072 -17147,-41340 -10849,-10259 -25217,-15393 -43103,-15393 -16704,0 -30776,5134 -42217,15393 -11136,9972 -18024,23749 -20665,41340l123132 0zm57296 -98950l59807 -434 61562 178979 60250 -178979 57610 0 -89716 235268 -58930 0 -90583 -234834zm272258 -434l57166 0 0 235268 -57166 0 0 -235268zm28145 -101146c9381,0 17147,3222 23306,9677 6159,6445 9233,14654 9233,24626 0,9677 -3074,17738 -9233,24183 -6159,6455 -13925,9677 -23306,9677 -9382,0 -17157,-3222 -23307,-9677 -6158,-6445 -9243,-14506 -9243,-24183 0,-9972 3085,-18181 9243,-24626 6150,-6455 13925,-9677 23307,-9677zm239228 164906c-11440,-6741 -23306,-12013 -35624,-15827 -12022,-3814 -23158,-5716 -33417,-5716 -9677,0 -17451,1755 -23315,5273 -5568,3232 -8347,8356 -8347,15392 0,7332 3518,13048 10554,17157 7322,3804 18763,7913 34294,12308 16418,4987 29908,9973 40463,14950 10554,4691 19640,11875 27267,21552 7913,9381 11865,21837 11865,37378 0,22872 -8790,40462 -26381,52771 -17590,12318 -39723,18468 -66400,18468 -18181,0 -35919,-2780 -53214,-8348 -17295,-5863 -31958,-14072 -43980,-24626l19797 -40019c10554,9086 23158,16269 37812,21542 14663,4986 28588,7479 41783,7479 10554,0 18911,-1763 25060,-5281 6455,-3805 9677,-9382 9677,-16704 0,-8209 -3665,-14368 -10997,-18477 -7322,-4100 -19197,-8643 -35615,-13629 -15836,-4691 -28735,-9234 -38698,-13629 -9973,-4691 -18616,-11589 -25947,-20675 -7332,-9381 -10998,-21542 -10998,-36501 0,-23158 8357,-40749 25070,-52771 16999,-12309 38256,-18467 63768,-18467 15532,0 30777,2197 45735,6592 15245,4405 28727,10555 40454,18477l-20666 41331zm210374 157002c-18763,11431 -38404,17147 -58930,17147 -20232,0 -36788,-5864 -49687,-17591 -12900,-12022 -19354,-29612 -19354,-52771l0 -116096 -32983 0 -434 -41774 33417 0 0 -64645 56732 0 0 64645 67277 0 0 41774 -67277 0 0 105985c0,10841 2050,18616 6150,23306 4109,4396 10268,6593 18476,6593 8791,0 19936,-3222 33418,-9677l13195 43104zm183844 14506l0 -28579c-8209,10259 -18763,18025 -31662,23306 -12900,5273 -27702,7914 -44415,7914 -16418,0 -30933,-3075 -43537,-9234 -12318,-6454 -21838,-15245 -28588,-26390 -6741,-11136 -10111,-23592 -10111,-37379 0,-21985 7766,-39132 23306,-51450 15540,-12604 37526,-19059 65966,-19345l68598 0 0 -6159c0,-13777 -4543,-24479 -13629,-32106 -9086,-7618 -22281,-11431 -39576,-11431 -22281,0 -45587,7332 -69928,21986l-20665 -39576c18468,-10259 35181,-17591 50130,-21986 15245,-4691 32984,-7036 53215,-7036 30490,0 54091,7322 70795,21985 17009,14654 25661,35181 25947,61571l443 153909 -56289 0zm-62448 -41331c16418,0 30490,-3813 42217,-11440 11727,-7914 18329,-17591 19788,-29022l0 -21108 -59364 0c-15245,0 -26529,2345 -33860,7036 -7036,4395 -10555,11727 -10555,21985 0,9973 3666,17886 10989,23750 7627,5863 17886,8799 30785,8799zm419066 -266496c38699,0 68607,9234 89715,27702 21395,18467 32097,44562 32097,78274 0,35181 -10702,62596 -32097,82237 -21108,19354 -51016,29031 -89715,29031l-67287 0 0 90583 -58920 0 0 -307827 126207 0zm-3075 165350c22281,0 39281,-4839 51008,-14516 12022,-9677 18033,-24035 18033,-43094 0,-18763 -6011,-32835 -18033,-42217 -11727,-9381 -28727,-14072 -51008,-14072l-64212 0 0 113899 64212 0zm310837 -29031c-11441,-6741 -23306,-12013 -35624,-15827 -12022,-3814 -23158,-5716 -33417,-5716 -9677,0 -17452,1755 -23315,5273 -5568,3232 -8348,8356 -8348,15392 0,7332 3518,13048 10555,17157 7322,3804 18763,7913 34294,12308 16417,4987 29908,9973 40462,14950 10554,4691 19640,11875 27268,21552 7913,9381 11865,21837 11865,37378 0,22872 -8791,40462 -26381,52771 -17590,12318 -39724,18468 -66400,18468 -18181,0 -35919,-2780 -53214,-8348 -17295,-5863 -31958,-14072 -43981,-24626l19797 -40019c10555,9086 23159,16269 37813,21542 14663,4986 28588,7479 41783,7479 10554,0 18910,-1763 25060,-5281 6454,-3805 9677,-9382 9677,-16704 0,-8209 -3666,-14368 -10997,-18477 -7323,-4100 -19197,-8643 -35615,-13629 -15836,-4691 -28736,-9234 -38699,-13629 -9972,-4691 -18615,-11589 -25947,-20675 -7331,-9381 -10997,-21542 -10997,-36501 0,-23158 8356,-40749 25070,-52771 16999,-12309 38255,-18467 63768,-18467 15531,0 30776,2197 45735,6592 15245,4405 28726,10555 40453,18477l-20665 41331zm72753 -63760l57166 0 0 235268 -57166 0 0 -235268zm28144 -101146c9382,0 17148,3222 23307,9677 6158,6445 9233,14654 9233,24626 0,9677 -3075,17738 -9233,24183 -6159,6455 -13925,9677 -23307,9677 -9381,0 -17147,-3222 -23306,-9677 -6159,-6445 -9233,-14506 -9233,-24183 0,-9972 3074,-18181 9233,-24626 6159,-6455 13925,-9677 23306,-9677zm261658 175460c-15836,-17295 -36353,-25938 -61571,-25938 -19049,0 -34590,6445 -46612,19345 -11727,12900 -17590,29613 -17590,50130 0,21109 5863,38117 17590,51017 12022,12899 27563,19345 46612,19345 28145,0 49253,-9234 63326,-27702l35623 29465c-10554,15245 -24478,26972 -41773,35181 -17304,8209 -37388,12309 -60251,12309 -23158,0 -43832,-4977 -62004,-14950 -17886,-9963 -31811,-23888 -41783,-41774 -9964,-18181 -14950,-38994 -14950,-62448 0,-23749 4986,-44710 14950,-62882 10268,-18181 24340,-32253 42217,-42217 18181,-9972 38994,-14958 62448,-14958 21404,0 40462,3813 57166,11440 17009,7323 30785,17877 41340,31663l-34738 32974zm181130 -76077c24331,0 45735,4986 64202,14958 18763,9964 33279,24036 43538,42217 10554,17877 15836,38551 15836,62005 0,23749 -5282,44710 -15836,62882 -10259,18182 -24775,32254 -43538,42217 -18467,9973 -39871,14950 -64202,14950 -24627,0 -46317,-4977 -65080,-14950 -18763,-9963 -33426,-24035 -43980,-42217 -10259,-18172 -15393,-39133 -15393,-62882 0,-23454 5134,-44128 15393,-62005 10554,-18181 25217,-32253 43980,-42217 18763,-9972 40453,-14958 65080,-14958zm0 48819c-19936,0 -36058,6593 -48376,19788 -12308,13195 -18467,30342 -18467,51450 0,21109 6159,38256 18467,51451 12318,13195 28440,19788 48376,19788 19354,0 35181,-6593 47499,-19788 12308,-13195 18467,-30342 18467,-51451 0,-21108 -6159,-38255 -18467,-51450 -12318,-13195 -28145,-19788 -47499,-19788zm175442 -138091l57166 0 0 326303 -57166 0 0 -326303zm233384 89272c24340,0 45735,4986 64211,14958 18763,9964 33270,24036 43538,42217 10554,17877 15826,38551 15826,62005 0,23749 -5272,44710 -15826,62882 -10268,18182 -24775,32254 -43538,42217 -18476,9973 -39871,14950 -64211,14950 -24627,0 -46317,-4977 -65080,-14950 -18763,-9963 -33426,-24035 -43981,-42217 -10258,-18172 -15383,-39133 -15383,-62882 0,-23454 5125,-44128 15383,-62005 10555,-18181 25218,-32253 43981,-42217 18763,-9972 40453,-14958 65080,-14958zm0 48819c-19936,0 -36058,6593 -48367,19788 -12318,13195 -18477,30342 -18477,51450 0,21109 6159,38256 18477,51451 12309,13195 28431,19788 48367,19788 19354,0 35180,-6593 47498,-19788 12309,-13195 18468,-30342 18468,-51451 0,-21108 -6159,-38255 -18468,-51450 -12318,-13195 -28144,-19788 -47498,-19788zm16713 -146005l54968 22429 -56289 45292 -44414 -4396 45735 -63325zm371576 98949l0 212839c0,22281 -5134,41635 -15392,58053 -9973,16713 -24331,29465 -43094,38255 -18477,9096 -40020,13639 -64646,13639 -35772,0 -68903,-10407 -99393,-31229l22872 -41330c22282,16417 46760,24626 73437,24626 21108,0 37821,-5429 50139,-16279 12604,-10840 18902,-25651 18902,-44415l0 -27701c-7914,12023 -18172,21256 -30776,27701 -12614,6159 -27268,9234 -43981,9234 -20517,0 -38699,-4691 -54525,-14072 -15836,-9668 -28145,-23011 -36945,-40010 -8790,-17304 -13195,-37092 -13195,-59373 0,-21986 4405,-41340 13195,-58044 8800,-17008 21109,-30203 36945,-39585 15826,-9381 34008,-14072 54525,-14072 16418,0 30933,3232 43537,9677 12900,6454 23306,15540 31220,27267l0 -35181 57175 0zm-119614 178545c18467,0 33417,-6159 44848,-18477 11727,-12604 17591,-28874 17591,-48810 0,-19936 -5864,-36058 -17591,-48376 -11431,-12604 -26381,-18910 -44848,-18910 -18477,0 -33574,6306 -45301,18910 -11431,12605 -17295,28736 -17590,48376 295,19936 6159,36206 17590,48810 11727,12318 26824,18477 45301,18477zm186725 -178545l57167 0 0 235268 -57167 0 0 -235268zm28145 -101146c9382,0 17147,3222 23306,9677 6159,6445 9234,14654 9234,24626 0,9677 -3075,17738 -9234,24183 -6159,6455 -13924,9677 -23306,9677 -9382,0 -17156,-3222 -23306,-9677 -6159,-6445 -9234,-14506 -9234,-24183 0,-9972 3075,-18181 9234,-24626 6150,-6455 13924,-9677 23306,-9677zm261658 175460c-15836,-17295 -36354,-25938 -61571,-25938 -19059,0 -34590,6445 -46612,19345 -11727,12900 -17591,29613 -17591,50130 0,21109 5864,38117 17591,51017 12022,12899 27553,19345 46612,19345 28144,0 49253,-9234 63325,-27702l35624 29465c-10554,15245 -24479,26972 -41783,35181 -17295,8209 -37378,12309 -60241,12309 -23158,0 -43833,-4977 -62005,-14950 -17886,-9963 -31810,-23888 -41783,-41774 -9963,-18181 -14949,-38994 -14949,-62448 0,-23749 4986,-44710 14949,-62882 10268,-18181 24340,-32253 42217,-42217 18181,-9972 38994,-14958 62448,-14958 21404,0 40463,3813 57166,11440 17009,7323 30786,17877 41340,31663l-34737 32974zm217187 160954l0 -28579c-8208,10259 -18763,18025 -31662,23306 -12900,5273 -27702,7914 -44415,7914 -16417,0 -30933,-3075 -43537,-9234 -12309,-6454 -21838,-15245 -28588,-26390 -6740,-11136 -10111,-23592 -10111,-37379 0,-21985 7766,-39132 23306,-51450 15541,-12604 37526,-19059 65966,-19345l68598 0 0 -6159c0,-13777 -4543,-24479 -13629,-32106 -9086,-7618 -22281,-11431 -39576,-11431 -22281,0 -45587,7332 -69927,21986l-20665 -39576c18467,-10259 35180,-17591 50130,-21986 15245,-4691 32983,-7036 53214,-7036 30490,0 54091,7322 70805,21985 16999,14654 25651,35181 25937,61571l444 153909 -56290 0zm-62448 -41331c16418,0 30490,-3813 42217,-11440 11727,-7914 18329,-17591 19788,-29022l0 -21108 -59364 0c-15245,0 -26528,2345 -33860,7036 -7036,4395 -10554,11727 -10554,21985 0,9973 3666,17886 10997,23750 7618,5863 17877,8799 30776,8799z"/>
  </g>
 </g>
</svg>
