<?xml version="1.0" encoding="UTF-8"?>
<!DOCTYPE svg PUBLIC "-//W3C//DTD SVG 1.0//EN" "http://www.w3.org/TR/2001/REC-SVG-20010904/DTD/svg10.dtd">
<!-- Creator: CorelDRAW X8 -->
<svg xmlns="http://www.w3.org/2000/svg" xml:space="preserve" width="390px" height="74px" version="1.0" style="shape-rendering:geometricPrecision; text-rendering:geometricPrecision; image-rendering:optimizeQuality; fill-rule:evenodd; clip-rule:evenodd"
viewBox="0 0 10367464 1964178"
 xmlns:xlink="http://www.w3.org/1999/xlink">
 <defs>
  <style type="text/css">
   <![CDATA[
    .str0 {stroke:#00995D;stroke-width:30041.6}
    .fil0 {fill:#FEFEFE}
    .fil1 {fill:#017849}
   ]]>
  </style>
 </defs>
 <g id="Camada_x0020_1">
  <metadata id="CorelCorpID_0Corel-Layer"/>
  <g id="_1712029758672">
   <path class="fil0 str0" d="M153913 15021l9583870 0c49729,0 95652,26587 120427,69706l475788 828176c24594,42839 24594,95532 0,138372l-475788 828175c-24775,43120 -70698,69707 -120427,69707l-9583870 0c-76706,0 -138892,-62186 -138892,-138892l0 -1656352c0,-76706 62186,-138892 138892,-138892z"/>
   <path class="fil1" d="M954851 852369l244649 0 0 55798 -180750 0 0 82504 162154 0 0 55797 -162154 0 0 83936 186478 0 0 55797 -250377 0 0 -333832zm466476 76306c29250,0 52302,8902 69155,26707 16854,17484 25275,41327 25275,71529l0 159290 -62476 0 0 -141165c0,-17805 -5087,-31794 -15261,-41968 -10174,-10495 -24004,-15742 -41488,-15742 -20668,320 -37041,7320 -49128,20989 -11756,13669 -17644,31153 -17644,52463l0 125423 -61996 0 0 -255143 61996 0 0 47686c17494,-32745 48016,-49438 91567,-50069zm313343 241784c-20348,12408 -41648,18606 -63908,18606 -21941,0 -39906,-6359 -53895,-19076 -13989,-13038 -20979,-32115 -20979,-57229l0 -125905 -35769 0 -481 -45312 36250 0 0 -70097 61525 0 0 70097 72961 0 0 45312 -72961 0 0 114929c0,11767 2223,20198 6669,25285 4457,4767 11136,7150 20038,7150 9533,0 21620,-3495 36240,-10494l14310 46734zm110663 -190283c8582,-16533 20188,-29090 34808,-37672 14941,-8902 32275,-13519 51982,-13829l0 60083c-26386,-1582 -47525,4616 -63427,18606 -15582,13669 -23363,32264 -23363,55797l0 123040 -62006 0 0 -255143 62006 0 0 49118zm236698 -51030c40696,0 71218,11606 91566,34818 20669,23212 31003,55797 31003,97765 0,8261 -160,14470 -480,18596l-188381 0c4136,18125 12557,32435 25275,42929 13038,10174 28930,15261 47696,15261 13028,0 25435,-2393 37191,-7160 12087,-5087 22582,-12237 31484,-21459l33376 34818c-12717,13989 -28289,24794 -46735,32425 -18125,7630 -38313,11446 -60563,11446 -26076,0 -49128,-5408 -69156,-16213 -19707,-10815 -34968,-25916 -45783,-45303 -10805,-19717 -16213,-42288 -16213,-67723 0,-25435 5408,-48007 16213,-67724 11125,-19707 26546,-34968 46264,-45783 19707,-11126 42128,-16693 67243,-16693zm65811 109691c-631,-18756 -6830,-33706 -18596,-44832 -11766,-11125 -27348,-16693 -46735,-16693 -18125,0 -33386,5568 -45783,16693 -12087,10815 -19557,25756 -22421,44832l133535 0zm62116 -107308l64859 -471 66763 194099 65340 -194099 62477 0 -97295 255143 -63898 0 -98246 -254672zm295258 -471l61996 0 0 255143 -61996 0 0 -255143zm30522 -109692c10174,0 18596,3495 25275,10495 6680,6990 10014,15892 10014,26707 0,10484 -3334,19237 -10014,26226 -6679,7000 -15101,10495 -25275,10495 -10174,0 -18595,-3495 -25275,-10495 -6679,-6989 -10013,-15742 -10013,-26226 0,-10815 3334,-19717 10013,-26707 6680,-7000 15101,-10495 25275,-10495zm259449 178838c-12397,-7310 -25275,-13028 -38633,-17164 -13028,-4136 -25115,-6198 -36240,-6198 -10495,0 -18916,1902 -25275,5717 -6039,3495 -9063,9063 -9063,16694 0,7951 3816,14149 11446,18595 7951,4136 20348,8592 37202,13359 17804,5407 32424,10805 43870,16212 11446,5087 21300,12878 29571,23373 8582,10174 12878,23682 12878,40536 0,24794 -9543,43870 -28620,57229 -19076,13348 -43079,20028 -72009,20028 -19717,0 -38944,-3015 -57710,-9063 -18756,-6359 -34658,-15261 -47686,-26707l21460 -43400c11446,9864 25114,17654 41016,23372 15892,5408 30993,8112 45303,8112 11446,0 20508,-1913 27188,-5728 6989,-4136 10484,-10174 10484,-18125 0,-8903 -3965,-15572 -11916,-20028 -7951,-4446 -20829,-9373 -38634,-14781 -17163,-5087 -31153,-10013 -41968,-14790 -10805,-5087 -20188,-12557 -28139,-22411 -7951,-10174 -11926,-23372 -11926,-39585 0,-25115 9062,-44191 27187,-57229 18446,-13349 41498,-20028 69156,-20028 16853,0 33386,2384 49599,7150 16533,4777 31153,11446 43870,20038l-22411 44822zm228146 170255c-20348,12408 -41648,18606 -63898,18606 -21941,0 -39906,-6359 -53895,-19076 -13989,-13038 -20989,-32115 -20989,-57229l0 -125905 -35759 0 -481 -45312 36240 0 0 -70097 61525 0 0 70097 72971 0 0 45312 -72971 0 0 114929c0,11767 2223,20198 6679,25285 4447,4767 11126,7150 20028,7150 9543,0 21620,-3495 36250,-10494l14300 46734zm199376 15742l0 -31003c-8902,11136 -20348,19557 -34338,25285 -13989,5718 -30041,8582 -48166,8582 -17805,0 -33547,-3344 -47216,-10014 -13348,-6999 -23682,-16533 -30992,-28619 -7321,-12077 -10976,-25596 -10976,-40536 0,-23843 8432,-42449 25275,-55798 16854,-13668 40697,-20668 71539,-20989l74403 0 0 -6669c0,-14951 -4937,-26547 -14790,-34818 -9854,-8261 -24164,-12397 -42920,-12397 -24163,0 -49438,7951 -75825,23843l-22421 -42920c20028,-11125 38153,-19076 54366,-23843 16533,-5087 35769,-7630 57710,-7630 33065,0 58661,7941 76786,23843 18435,15892 27818,38153 28139,66762l470 166921 -61044 0zm-67724 -44832c17805,0 33066,-4126 45784,-12397 12717,-8582 19877,-19076 21469,-31474l0 -22891 -64389 0c-16533,0 -28770,2543 -36721,7630 -7630,4767 -11445,12718 -11445,23843 0,10815 3975,19397 11926,25756 8261,6359 19387,9533 33376,9533zm454469 -289000c41968,0 74403,10014 97295,30042 23212,20028 34818,48327 34818,84887 0,38153 -11606,67884 -34818,89184 -22892,20989 -55327,31473 -97295,31473l-72961 0 0 98246 -63908 0 0 -333832 136869 0zm-3335 179318c24164,0 42609,-5247 55327,-15741 13028,-10495 19547,-26076 19547,-46735 0,-20348 -6519,-35609 -19547,-45783 -12718,-10174 -31163,-15261 -55327,-15261l-69626 0 0 123520 69626 0zm337097 -31483c-12397,-7310 -25275,-13028 -38634,-17164 -13028,-4136 -25114,-6198 -36240,-6198 -10494,0 -18916,1902 -25275,5717 -6038,3495 -9062,9063 -9062,16694 0,7951 3815,14149 11446,18595 7951,4136 20348,8592 37201,13359 17805,5407 32425,10805 43871,16212 11446,5087 21299,12878 29571,23373 8581,10174 12877,23682 12877,40536 0,24794 -9543,43870 -28619,57229 -19077,13348 -43080,20028 -72010,20028 -19717,0 -38944,-3015 -57710,-9063 -18756,-6359 -34648,-15261 -47686,-26707l21460 -43400c11446,9864 25115,17654 41017,23372 15892,5408 30993,8112 45302,8112 11446,0 20509,-1913 27188,-5728 6990,-4136 10485,-10174 10485,-18125 0,-8903 -3966,-15572 -11917,-20028 -7951,-4446 -20829,-9373 -38633,-14781 -17164,-5087 -31153,-10013 -41968,-14790 -10805,-5087 -20188,-12557 -28139,-22411 -7941,-10174 -11917,-23372 -11917,-39585 0,-25115 9063,-44191 27178,-57229 18445,-13349 41497,-20028 69155,-20028 16854,0 33387,2384 49599,7150 16533,4777 31153,11446 43871,20038l-22411 44822zm78899 -69146l62006 0 0 255143 -62006 0 0 -255143zm30522 -109692c10174,0 18606,3495 25275,10495 6679,6990 10024,15892 10024,26707 0,10484 -3345,19237 -10024,26226 -6669,7000 -15101,10495 -25275,10495 -10174,0 -18596,-3495 -25275,-10495 -6679,-6989 -10014,-15742 -10014,-26226 0,-10815 3335,-19717 10014,-26707 6679,-7000 15101,-10495 25275,-10495zm283763 190284c-17164,-18756 -39425,-28139 -66763,-28139 -20668,0 -37521,6999 -50560,20989 -12717,13989 -19076,32114 -19076,54365 0,22892 6359,41337 19076,55327 13039,13989 29892,20979 50560,20979 30523,0 53414,-10014 68675,-30042l38624 31954c-11446,16533 -26547,29251 -45303,38153 -18756,8902 -40536,13349 -65340,13349 -25115,0 -47526,-5408 -67243,-16213 -19397,-10815 -34498,-25916 -45303,-45303 -10815,-19717 -16212,-42288 -16212,-67723 0,-25756 5397,-48487 16212,-68205 11125,-19707 26387,-34968 45783,-45783 19708,-10805 42289,-16212 67724,-16212 23202,0 43871,4135 61996,12397 18435,7951 33386,19397 44832,34337l-37682 35770zm196432 -82504c26396,0 49598,5407 69636,16212 20348,10815 36080,26076 47215,45783 11446,19397 17164,41818 17164,67253 0,25746 -5718,48477 -17164,68195 -11135,19707 -26867,34968 -47215,45783 -20038,10805 -43240,16213 -69636,16213 -26707,0 -50230,-5408 -70578,-16213 -20348,-10815 -36250,-26076 -47696,-45783 -11125,-19718 -16683,-42449 -16683,-68195 0,-25435 5558,-47856 16683,-67253 11446,-19707 27348,-34968 47696,-45783 20348,-10805 43871,-16212 70578,-16212zm0 52943c-21620,0 -39105,7150 -52453,21459 -13358,14300 -20038,32906 -20038,55798 0,22891 6680,41487 20038,55797 13348,14310 30833,21460 52453,21460 20989,0 38152,-7150 51511,-21460 13348,-14310 20028,-32906 20028,-55797 0,-22892 -6680,-41498 -20028,-55798 -13359,-14309 -30522,-21459 -51511,-21459zm190263 -149757l61996 0 0 353869 -61996 0 0 -353869zm253110 96814c26387,0 49599,5407 69626,16212 20349,10815 36090,26076 47216,45783 11446,19397 17163,41818 17163,67253 0,25746 -5717,48477 -17163,68195 -11126,19707 -26867,34968 -47216,45783 -20027,10805 -43239,16213 -69626,16213 -26707,0 -50239,-5408 -70588,-16213 -20348,-10815 -36240,-26076 -47686,-45783 -11125,-19718 -16693,-42449 -16693,-68195 0,-25435 5568,-47856 16693,-67253 11446,-19707 27338,-34968 47686,-45783 20349,-10805 43881,-16212 70588,-16212zm0 52943c-21620,0 -39104,7150 -52463,21459 -13348,14300 -20027,32906 -20027,55798 0,22891 6679,41487 20027,55797 13359,14310 30843,21460 52463,21460 20979,0 38153,-7150 51501,-21460 13359,-14310 20038,-32906 20038,-55797 0,-22892 -6679,-41498 -20038,-55798 -13348,-14309 -30522,-21459 -51501,-21459zm18125 -158339l59613 24323 -61045 49118 -48167 -4766 49599 -68675zm402958 107308l0 230820c0,24163 -5568,45152 -16693,62957 -10805,18115 -26387,31954 -46735,41487 -20028,9854 -43400,14781 -70107,14781 -38794,0 -74713,-11286 -107779,-33857l24794 -44832c24163,17804 50710,26707 79650,26707 22892,0 41007,-5879 54365,-17645 13669,-11766 20509,-27818 20509,-48166l0 -30042c-8592,13028 -19717,23052 -33386,30042 -13669,6679 -29571,10013 -47696,10013 -22251,0 -41968,-5087 -59132,-15261 -17174,-10494 -30522,-24954 -40066,-43400 -9533,-18756 -14299,-40215 -14299,-64379 0,-23843 4766,-44832 14299,-62957 9544,-18435 22892,-32745 40066,-42919 17164,-10174 36881,-15261 59132,-15261 17804,0 33546,3494 47215,10494 13989,6990 25275,16853 33867,29571l0 -38153 61996 0zm-129720 193618c20028,0 36240,-6669 48647,-20028 12718,-13669 19077,-31313 19077,-52933 0,-21620 -6359,-39104 -19077,-52462 -12407,-13669 -28619,-20509 -48647,-20509 -20028,0 -36400,6840 -49118,20509 -12407,13668 -18766,31163 -19076,52462 310,21620 6669,39264 19076,52933 12718,13359 29090,20028 49118,20028zm202500 -193618l61996 0 0 255143 -61996 0 0 -255143zm30523 -109692c10174,0 18595,3495 25275,10495 6679,6990 10013,15892 10013,26707 0,10484 -3334,19237 -10013,26226 -6680,7000 -15101,10495 -25275,10495 -10175,0 -18596,-3495 -25275,-10495 -6680,-6989 -10014,-15742 -10014,-26226 0,-10815 3334,-19717 10014,-26707 6679,-7000 15100,-10495 25275,-10495zm283762 190284c-17174,-18756 -39424,-28139 -66772,-28139 -20659,0 -37512,6999 -50550,20989 -12718,13989 -19077,32114 -19077,54365 0,22892 6359,41337 19077,55327 13038,13989 29891,20979 50550,20979 30522,0 53414,-10014 68675,-30042l38633 31954c-11446,16533 -26546,29251 -45302,38153 -18766,8902 -40537,13349 -65341,13349 -25115,0 -47536,-5408 -67243,-16213 -19397,-10815 -34498,-25916 -45303,-45303 -10815,-19717 -16222,-42288 -16222,-67723 0,-25756 5407,-48487 16222,-68205 11126,-19707 26387,-34968 45784,-45783 19707,-10805 42278,-16212 67713,-16212 23213,0 43881,4135 62006,12397 18436,7951 33376,19397 44822,34337l-37672 35770zm235536 174551l0 -31003c-8902,11136 -20348,19557 -34337,25285 -13990,5718 -30042,8582 -48167,8582 -17805,0 -33536,-3344 -47215,-10014 -13349,-6999 -23683,-16533 -30993,-28619 -7310,-12077 -10975,-25596 -10975,-40536 0,-23843 8431,-42449 25284,-55798 16844,-13668 40697,-20668 71529,-20989l74403 0 0 -6669c0,-14951 -4926,-26547 -14790,-34818 -9854,-8261 -24163,-12397 -42919,-12397 -24164,0 -49439,7951 -75825,23843l-22421 -42920c20037,-11125 38152,-19076 54375,-23843 16533,-5087 35769,-7630 57700,-7630 33065,0 58661,7941 76786,23843 18435,15892 27818,38153 28139,66762l471 166921 -61045 0zm-67714 -44832c17805,0 33066,-4126 45784,-12397 12717,-8582 19867,-19076 21459,-31474l0 -22891 -64389 0c-16533,0 -28769,2543 -36720,7630 -7631,4767 -11446,12718 -11446,23843 0,10815 3975,19397 11926,25756 8262,6359 19397,9533 33386,9533z"/>
  </g>
 </g>
</svg>
