<?xml version="1.0" encoding="UTF-8"?>
<!DOCTYPE svg PUBLIC "-//W3C//DTD SVG 1.0//EN" "http://www.w3.org/TR/2001/REC-SVG-20010904/DTD/svg10.dtd">
<!-- Creator: CorelDRAW X8 -->
<svg xmlns="http://www.w3.org/2000/svg" xml:space="preserve" width="390px" height="78px" version="1.0" style="shape-rendering:geometricPrecision; text-rendering:geometricPrecision; image-rendering:optimizeQuality; fill-rule:evenodd; clip-rule:evenodd"
viewBox="0 0 216839839 43226257"
 xmlns:xlink="http://www.w3.org/1999/xlink">
 <defs>
  <style type="text/css">
   <![CDATA[
    .fil3 {fill:none}
    .fil4 {fill:#E0E0E0}
    .fil0 {fill:#FAFAFA}
    .fil1 {fill:white;fill-opacity:0.000000}
    .fil2 {fill:#EEEEEE}
   ]]>
  </style>
     <clipPath id="id0">
      <path d="M417389 4650360c-1189055,-2069264 304817,-4650360 2691206,-4650360l210622425 0c1717225,0 3108819,1389804 3108819,3104119l0 37018019c0,1714315 -1391594,3104119 -3108819,3104119l-210622425 0c-2386389,0 -3880261,-2580872 -2691206,-4650360l8856474 -15416528c550103,-957420 550103,-2135061 0,-3092481l-8856474 -15416528z"/>
     </clipPath>
     <clipPath id="id1">
      <path d="M417389 4650360c-1189055,-2069264 304817,-4650360 2691206,-4650360l210622425 0c1717225,0 3108819,1389804 3108819,3104119l0 37018019c0,1714315 -1391594,3104119 -3108819,3104119l-210622425 0c-2386389,0 -3880261,-2580872 -2691206,-4650360l8856474 -15416528c550103,-957420 550103,-2135061 0,-3092481l-8856474 -15416528z"/>
     </clipPath>
 </defs>
 <g id="Camada_x0020_1">
  <metadata id="CorelCorpID_0Corel-Layer"/>
  <g id="_1712019389216">
   <g filter="url(#filter2_d_4152_30511)">
    <path class="fil0" d="M417389 4650360c-1189055,-2069264 304817,-4650360 2691206,-4650360l210622425 0c1717225,0 3108819,1389804 3108819,3104119l0 37018019c0,1714315 -1391594,3104119 -3108819,3104119l-210622425 0c-2386389,0 -3880261,-2580872 -2691206,-4650360l8856474 -15416528c550103,-957420 550103,-2135061 0,-3092481l-8856474 -15416528z"/>
    <g style="clip-path:url(#id0)">
     <polygon class="fil1" points="0,0 216839839,0 216839839,43226257 0,43226257 "/>
    </g>
    <g style="clip-path:url(#id1)">
     <g>
      <path id="1" class="fil2" d="M9273863 23159369l672746 386504 -672746 -386504zm0 -3092481l-673193 386504 673193 -386504zm204457157 -20842806l-210622425 0 0 1552060 210622425 0 0 -1552060zm3884513 40898056l0 -37018019 -1551612 0 0 37018019 1551612 0zm-214506938 3880037l210622425 0 0 -1551836 -210622425 0 0 1551836zm5492075 -21229310l-8856027 15416528 1345268 773008 8856698 -15416528 -1345939 -773008zm0 -2319473c412689,718177 412689,1601296 0,2319473l1345939 773008c687517,-1196663 687517,-2668602 0,-3865489l-1345939 773008zm-8856027 -15416304l8856027 15416304 1345939 -773008 -8856698 -15416528 -1345268 773232zm3363952 37413251c-1789512,0 -2910307,-1935878 -2018684,-3487938l-1345268 -773008c-1486262,2586691 380686,5812782 3363952,5812782l0 -1551836zm212955326 -2328201c0,1285736 -1042017,2328201 -2332901,2328201l0 1551836c2143565,0 3884513,-1737143 3884513,-3880037l-1551612 0zm-212955326 -40898056c-2983266,0 -4850214,3226091 -3363952,5813006l1345268 -773232c-891623,-1552060 229172,-3487714 2018684,-3487714l0 -1552060zm210622425 1552060c1290884,0 2332901,1042241 2332901,2327977l1551612 0c0,-2142894 -1740948,-3880037 -3884513,-3880037l0 1552060z"/>
     </g>
    </g>
    <path class="fil3" d="M417389 4650360c-1189055,-2069264 304817,-4650360 2691206,-4650360l210622425 0c1717225,0 3108819,1389804 3108819,3104119l0 37018019c0,1714315 -1391594,3104119 -3108819,3104119l-210622425 0c-2386389,0 -3880261,-2580872 -2691206,-4650360l8856474 -15416528c550103,-957420 550103,-2135061 0,-3092481l-8856474 -15416528z"/>
   </g>
   <path class="fil4" d="M26884760 17905194c738990,0 1410393,166956 2014432,500867 611200,334135 1090806,792255 1439040,1375033 348011,582554 522128,1229339 522128,1939907 0,710568 -174117,1360709 -522128,1950425 -348234,582777 -827840,1044479 -1439040,1385551 -604039,341073 -1275442,511609 -2014432,511609 -738991,0 -1413975,-170536 -2025175,-511609 -603815,-341072 -1080063,-802774 -1428074,-1385551 -348234,-589716 -522351,-1239857 -522351,-1950425 0,-710568 174117,-1357353 522351,-1939907 348011,-582778 824259,-1040898 1428074,-1375033 611200,-333911 1286184,-500867 2025175,-500867zm21261 1279023c-454764,0 -877524,113691 -1268280,341073 -390757,220220 -699826,525708 -927207,916688 -227382,383595 -341073,809936 -341073,1279023 0,468863 113691,898784 341073,1289541 234319,390980 543388,700049 927207,927431 390756,227381 813516,341072 1268280,341072 447826,0 863424,-113691 1247019,-341072 383818,-227382 685726,-536451 906170,-927431 227381,-390757 341072,-820678 341072,-1289541 0,-469087 -113691,-895428 -341072,-1279023 -220444,-390980 -522352,-696468 -906170,-916688 -383595,-227382 -799193,-341073 -1247019,-341073zm8511597 532870c532870,0 1001733,124433 1406813,373076 412241,241705 728248,582778 948692,1023218 227382,440664 341073,948692 341073,1524084 0,568455 -110110,1069545 -330554,1503048 -220220,433278 -532870,770770 -937950,1012475 -404856,241481 -873943,362334 -1406813,362334 -426340,0 -802997,-81688 -1129747,-245062 -326973,-170537 -596877,-415822 -810159,-735410l0 927207 -1385552 0 0 -7908678 1385552 0 0 3144404c206120,-319812 469087,-561517 788674,-724892 326974,-170536 703631,-255804 1129971,-255804zm-309293 4604481c469087,0 852682,-159794 1151232,-479606 298327,-326749 447602,-742571 447602,-1247019 0,-504447 -149275,-916688 -447602,-1236500 -298550,-319588 -682145,-479605 -1151232,-479605 -476024,0 -863200,160017 -1161750,479605 -298327,319812 -447602,732053 -447602,1236500 0,511609 149275,927208 447602,1247019 298550,319812 685726,479606 1161750,479606zm7585510 -3016390c-277290,-163374 -565098,-291165 -863424,-383594 -291389,-92430 -561293,-138533 -810160,-138533 -234319,0 -422760,42522 -564873,127790 -134952,78107 -202540,202540 -202540,373076 0,177698 85268,316231 255804,415599 177698,92429 454764,192021 831421,298550 397918,120853 724891,241481 980695,362334 255805,113691 476025,287808 660661,522351 192021,227382 287808,529289 287808,905946 0,554132 -213059,980472 -639399,1279023 -426341,298327 -962792,447602 -1609577,447602 -440440,0 -870362,-67364 -1289541,-202540 -419179,-142114 -774575,-341073 -1065964,-596877l479606 -969954c255804,220444 561516,394562 916688,522352 355396,120852 692888,181279 1012700,181279 255804,0 458120,-42746 607395,-128014 156437,-92430 234544,-227382 234544,-405080 0,-198959 -88849,-348011 -266547,-447602 -177474,-99368 -465282,-209478 -863200,-330330 -383819,-113691 -696469,-223801 -937950,-330554 -241705,-113691 -451183,-280647 -628881,-500867 -177698,-227382 -266547,-522351 -266547,-884685 0,-561293 202540,-987633 607620,-1279022 412017,-298327 927207,-447602 1545345,-447602 376657,0 746153,53264 1108486,159794 369496,106753 696469,255804 980696,447825l-500866 1001733zm4140093 -1588091c909527,0 1591673,259385 2046436,778156 461925,518770 692888,1247019 692888,2184968 0,184636 -3581,323393 -10743,415599l-4210143 0c92430,405079 280646,724891 564874,959434 291388,227382 646784,341073 1065963,341073 291389,0 568455,-53488 831421,-160018 269904,-113691 504447,-273484 703406,-479605l746153 778156c-284228,312650 -632462,554131 -1044703,724667 -404856,170537 -856039,255805 -1353548,255805 -582554,0 -1097744,-120853 -1545570,-362334 -440440,-241705 -781512,-579197 -1023217,-1012475 -241482,-440664 -362334,-945112 -362334,-1513566 0,-568455 120852,-1072902 362334,-1513566 248866,-440440 593520,-781513 1033960,-1023218 440664,-248643 941530,-373076 1502823,-373076zm1470820 2451515c-14099,-419179 -152632,-753314 -415598,-1001956 -262966,-248643 -610977,-373077 -1044479,-373077 -405080,0 -746153,124434 -1023218,373077 -270128,241705 -437083,575616 -501091,1001956l2984386 0zm3845348 -1311025c192021,-369496 451406,-650142 778156,-841940 333911,-198959 721310,-302131 1161750,-309069l0 1342806c-589715,-35361 -1062159,103172 -1417555,415822 -348234,305488 -522351,721087 -522351,1247019l0 2749842 -1385552 0 0 -5702224 1385552 0 0 1097744zm2310073 -1087225l1449559 -10519 1492081 4337934 1460301 -4337934 1396294 0 -2174450 5702224 -1428074 0 -2195711 -5691705zm9810538 5691705l0 -692888c-198959,248867 -454763,437084 -767413,565098 -312650,127790 -671403,191797 -1076483,191797 -397918,0 -749733,-74749 -1055221,-223801 -298327,-156437 -529289,-369495 -692888,-639623 -163375,-269904 -245062,-572035 -245062,-905946 0,-532870 188217,-948692 564874,-1247019 376657,-305488 909527,-461925 1598834,-469087l1662617 0 0 -149051c0,-334135 -110110,-593296 -330330,-778156 -220220,-184636 -540032,-277066 -959211,-277066 -540032,0 -1104905,177698 -1694845,532870l-500866 -959210c447602,-248643 852681,-426341 1215015,-532870 369495,-113691 799417,-170537 1289765,-170537 738991,0 1311026,177474 1716106,532870 412017,355172 621719,852682 628656,1492081l10743 3730538 -1364291 0zm-1513565 -1001957c397918,0 738990,-92206 1023217,-277065 284228,-191798 444245,-426341 479606,-703407l0 -511609 -1438816 0c-369496,0 -642980,56846 -820678,170537 -170537,106529 -255805,284227 -255805,532870 0,241705 88849,433502 266547,575616 184636,142113 433279,213058 745929,213058zm9261106 -95786c-220220,319587 -504447,575392 -852681,767413 -348234,191797 -746153,312650 -1193754,362334l-202540 532870c298550,49684 518770,149275 660884,298550 142113,156213 213282,341073 213282,554131 0,312650 -120852,550774 -362557,714149 -234320,170536 -536451,255805 -905947,255805 -348234,0 -703406,-74526 -1065740,-223801l255805 -746153c220220,78107 422760,117272 607396,117272 135175,0 241705,-24842 319811,-74526 78107,-49907 117272,-110110 117272,-181278 0,-78107 -46103,-142114 -138533,-191798 -92430,-49684 -223801,-74749 -394337,-74749l-319812 0 330330 -991215c-483186,-63783 -909527,-223801 -1279022,-479605 -362334,-255805 -642980,-586135 -841939,-991215 -198959,-412017 -298551,-873942 -298551,-1385551 0,-575616 120853,-1083644 362558,-1524308 248643,-440441 589715,-781513 1023218,-1023218 440440,-241482 944887,-362334 1513342,-362334 518770,0 980696,92430 1385775,277065 412018,177698 745929,433503 1001733,767414l-841939 799417c-383595,-419179 -881104,-628881 -1492081,-628881 -461925,0 -838582,156437 -1129971,469087 -284227,312650 -426340,717730 -426340,1215015 0,511609 142113,923851 426340,1236501 291389,312649 668046,468863 1129971,468863 682146,0 1193755,-223801 1534827,-671403l863200 714149zm4358076 1097743l0 -692888c-198959,248867 -454763,437084 -767413,565098 -312650,127790 -671403,191797 -1076483,191797 -397918,0 -749509,-74749 -1055221,-223801 -298327,-156437 -529289,-369495 -692664,-639623 -163375,-269904 -245286,-572035 -245286,-905946 0,-532870 188440,-948692 565097,-1247019 376434,-305488 909527,-461925 1598611,-469087l1662841 0 0 -149051c0,-334135 -110111,-593296 -330554,-778156 -220221,-184636 -540032,-277066 -959211,-277066 -540032,0 -1104906,177698 -1694621,532870l-501090 -959210c447825,-248643 852681,-426341 1215239,-532870 369495,-113691 799417,-170537 1289541,-170537 738990,0 1311026,177474 1716105,532870 412018,355172 621719,852682 628881,1492081l10519 3730538 -1364291 0zm-1513342 -1001957c397918,0 738991,-92206 1023218,-277065 284227,-191798 444021,-426341 479606,-703407l0 -511609 -1439041 0c-369495,0 -642980,56846 -820678,170537 -170536,106529 -255804,284227 -255804,532870 0,241705 88849,433502 266547,575616 184636,142113 433502,213058 746152,213058zm2184969 -6906721c0,994796 -312650,1492305 -937950,1492305 -156437,0 -309069,-28423 -458344,-85268 -142114,-56846 -301908,-134952 -479606,-234543 -227381,-127791 -387399,-191798 -479605,-191798 -106753,0 -181279,42522 -223801,127790 -42746,78331 -64007,195379 -64007,351816l-884685 0c0,-1001957 309069,-1502824 927207,-1502824 156437,0 305712,28423 447826,85268 149051,56846 312650,134952 490124,234544 227382,127790 387399,191797 479605,191797 106753,0 181279,-39165 224025,-117272 42522,-85268 63783,-202539 63783,-351815l895428 0zm4741223 2163708c589715,0 1108486,120852 1556088,362334 454763,241705 806578,582777 1055221,1023218 255805,433502 383819,934592 383819,1503047 0,575392 -128014,1083420 -383819,1524084 -248643,440440 -600458,781513 -1055221,1023218 -447602,241481 -966373,362334 -1556088,362334 -596877,0 -1122586,-120853 -1577349,-362334 -454764,-241705 -810160,-582778 -1065964,-1023218 -248643,-440664 -373076,-948692 -373076,-1524084 0,-568455 124433,-1069545 373076,-1503047 255804,-440441 611200,-781513 1065964,-1023218 454763,-241482 980472,-362334 1577349,-362334zm0 1183236c-483186,0 -873943,159793 -1172493,479605 -298327,319588 -447602,735410 -447602,1247019 0,511609 149275,927207 447602,1247019 298550,319811 689307,479605 1172493,479605 469087,0 852681,-159794 1151232,-479605 298326,-319812 447602,-735410 447602,-1247019 0,-511609 -149276,-927431 -447602,-1247019 -298551,-319812 -682145,-479605 -1151232,-479605zm12268544 -746153c-262966,-305488 -575616,-543612 -937950,-714149 -355172,-170536 -717730,-255804 -1087225,-255804 -461701,0 -884685,110110 -1268280,330330 -383819,220444 -685726,525932 -905946,916689 -220220,383818 -330554,806578 -330554,1268280 0,461925 110334,888266 330554,1279022 220220,383819 522127,689307 905946,916689 383595,220220 806579,330554 1268280,330554 355396,0 710568,-78331 1065964,-234544 362334,-156437 682145,-373076 959211,-650141l841939 937949c-390757,397918 -845520,714149 -1364291,948469 -518546,227382 -1044479,341072 -1577349,341072 -717729,0 -1375033,-170536 -1971910,-511609 -596877,-341072 -1065740,-802774 -1406813,-1385551 -341072,-589716 -511609,-1239857 -511609,-1950425 0,-710568 174118,-1357353 522128,-1939907 348234,-582778 820902,-1040898 1417779,-1375033 603815,-333911 1271861,-500867 2003690,-500867 532870,0 1055221,106530 1566830,319812 511609,213059 948692,508028 1311026,884685l-831420 1044479zm4312644 -437083c589715,0 1108486,120852 1556088,362334 454763,241705 806578,582777 1055221,1023218 255805,433502 383595,934592 383595,1503047 0,575392 -127790,1083420 -383595,1524084 -248643,440440 -600458,781513 -1055221,1023218 -447602,241481 -966373,362334 -1556088,362334 -596877,0 -1122809,-120853 -1577573,-362334 -454763,-241705 -809936,-582778 -1065740,-1023218 -248867,-440664 -373076,-948692 -373076,-1524084 0,-568455 124209,-1069545 373076,-1503047 255804,-440441 610977,-781513 1065740,-1023218 454764,-241482 980696,-362334 1577573,-362334zm0 1183236c-483186,0 -874167,159793 -1172493,479605 -298551,319588 -447602,735410 -447602,1247019 0,511609 149051,927207 447602,1247019 298326,319811 689307,479605 1172493,479605 468863,0 852681,-159794 1151008,-479605 298551,-319812 447602,-735410 447602,-1247019 0,-511609 -149051,-927431 -447602,-1247019 -298327,-319812 -682145,-479605 -1151008,-479605zm11670324 -1193755c646785,0 1154813,198959 1524308,596877 369495,390757 554131,923627 554131,1598611l0 3560001 -1396294 0 0 -3154922c0,-405079 -113691,-721310 -341072,-948692 -220221,-234320 -522128,-351591 -905947,-351591 -440440,14099 -792255,174117 -1055221,479605 -255805,305488 -383595,692888 -383595,1161751l0 2813849 -1396294 0 0 -3154922c0,-405079 -110110,-721310 -330330,-948692 -220444,-234320 -522352,-351591 -905946,-351591 -447826,14099 -802998,174117 -1065964,479605 -255805,305488 -383595,692888 -383595,1161751l0 2813849 -1385776 0 0 -5702224 1385776 0 0 1055221c376433,-724891 1044479,-1094386 2003690,-1108486 497509,0 913108,120629 1247019,362334 341072,234543 579196,568454 714148,1001957 362334,-895428 1069321,-1350191 2120962,-1364291zm6981470 10519c532870,0 1001957,124433 1406813,373076 412241,241705 728472,582778 948692,1023218 227382,440664 341073,948692 341073,1524084 0,568455 -110110,1069545 -330330,1503048 -220444,433278 -533094,770770 -937950,1012475 -405080,241481 -874167,362334 -1407037,362334 -426340,0 -802997,-81688 -1129747,-245062 -326973,-170537 -596877,-415822 -810159,-735410l0 2994904 -1385552 0 0 -7769921 1385552 0 0 937950c206120,-319812 469087,-561517 788898,-724892 326750,-170536 703406,-255804 1129747,-255804zm-309069 4604481c468863,0 852682,-159794 1151008,-479606 298551,-326749 447602,-742571 447602,-1247019 0,-504447 -149051,-916688 -447602,-1236500 -298326,-319588 -682145,-479605 -1151008,-479605 -476248,0 -863424,160017 -1161751,479605 -298550,319812 -447825,732053 -447825,1236500 0,511609 149275,927208 447825,1247019 298327,319812 685503,479606 1161751,479606zm6700600 -4604481c589716,0 1108487,120852 1556088,362334 454764,241705 806579,582777 1055222,1023218 255804,433502 383818,934592 383818,1503047 0,575392 -128014,1083420 -383818,1524084 -248643,440440 -600458,781513 -1055222,1023218 -447601,241481 -966372,362334 -1556088,362334 -596877,0 -1122809,-120853 -1577572,-362334 -454764,-241705 -809936,-582778 -1065741,-1023218 -248642,-440664 -373076,-948692 -373076,-1524084 0,-568455 124434,-1069545 373076,-1503047 255805,-440441 610977,-781513 1065741,-1023218 454763,-241482 980695,-362334 1577572,-362334zm0 1183236c-483186,0 -873942,159793 -1172493,479605 -298326,319588 -447602,735410 -447602,1247019 0,511609 149276,927207 447602,1247019 298551,319811 689307,479605 1172493,479605 468863,0 852682,-159794 1151009,-479605 298550,-319812 447825,-735410 447825,-1247019 0,-511609 -149275,-927431 -447825,-1247019 -298327,-319812 -682146,-479605 -1151009,-479605zm5584505 -42746c191798,-369496 451183,-650142 777932,-841940 334135,-198959 721311,-302131 1161975,-309069l0 1342806c-589939,-35361 -1062383,103172 -1417779,415822 -348010,305488 -522128,721087 -522128,1247019l0 2749842 -1385551 0 0 -5702224 1385551 0 0 1097744zm6248747 4252665c-454764,277289 -930789,415822 -1428298,415822 -490124,0 -891623,-142113 -1204273,-426341 -312650,-291388 -469087,-717729 -469087,-1279022l0 -2813849 -799417 0 -10518 -1012700 809935 0 0 -1566606 1375033 0 0 1566606 1630838 0 0 1012700 -1630838 0 0 2568563c0,262966 49684,451407 149275,565098 99368,106529 248643,159793 447602,159793 213059,0 483187,-78106 809936,-234543l319812 1044479zm4454757 351815l0 -692888c-195378,248867 -455882,437084 -763832,565098 -313993,127790 -675208,191797 -1077826,191797 -396575,0 -750852,-74749 -1056340,-223801 -298327,-156437 -529289,-369495 -692664,-639623 -163599,-269904 -245286,-572035 -245286,-905946 0,-532870 188441,-948692 564874,-1247019 376657,-305488 908408,-461925 1601295,-469087l1657918 0 0 -149051c0,-334135 -106529,-593296 -325631,-778156 -225143,-184636 -544731,-277066 -959434,-277066 -544732,0 -1107143,177698 -1696859,532870l-501090 -959210c447602,-248643 852681,-426341 1215015,-532870 367257,-113691 799417,-170537 1290884,-170537 740333,0 1308788,177474 1717225,532870 408660,355172 621719,852682 627761,1492081l11862 3730538 -1367872 0zm-1509985 -1001957c396799,0 734291,-92206 1018518,-277065 284228,-191798 444021,-426341 479606,-703407l0 -511609 -1438816 0c-367258,0 -639624,56846 -817321,170537 -171656,106529 -256924,284227 -256924,532870 0,241705 91087,433502 268785,575616 183517,142113 432383,213058 746152,213058zm11901958 -4753532c645442,0 1154813,198959 1521847,596877 373076,390757 556593,923627 556593,1598611l0 3560001 -1397413 0 0 -3154922c0,-405079 -112572,-721310 -337492,-948692 -225144,-234320 -527051,-351591 -905946,-351591 -444245,14099 -793599,174117 -1059922,479605 -254685,305488 -379119,692888 -379119,1161751l0 2813849 -1397413 0 0 -3154922c0,-405079 -112571,-721310 -331673,-948692 -219101,-234320 -521008,-351591 -905946,-351591 -449840,14099 -805236,174117 -1065740,479605 -254685,305488 -384938,692888 -384938,1161751l0 2813849 -1385551 0 0 -5702224 1385551 0 0 1055221c378895,-724891 1048060,-1094386 2007271,-1108486 497510,0 911989,120629 1243662,362334 343311,234543 580316,568454 716387,1001957 361214,-895428 1065964,-1350191 2119842,-1364291zm5998313 10519c911989,0 1593015,259385 2048898,778156 461925,518770 692888,1247019 692888,2184968 0,184636 -6043,323393 -11862,415599l-4210143 0c94668,405079 284227,724891 568454,959434 290046,227382 645442,341073 1065740,341073 290270,0 568455,-53488 829183,-160018 272365,-113691 503328,-273484 704525,-479605l746152 778156c-284227,312650 -633580,554131 -1048059,724667 -402618,170537 -852682,255805 -1350191,255805 -586135,0 -1101325,-120853 -1545346,-362334 -444245,-241705 -781737,-579197 -1024561,-1012475 -242600,-440664 -361214,-945112 -361214,-1513566 0,-568455 118614,-1072902 361214,-1513566 248867,-440440 592178,-781513 1036422,-1023218 437979,-248643 941307,-373076 1497900,-373076zm1474625 2451515c-17904,-419179 -153975,-753314 -414480,-1001956 -266547,-248643 -615900,-373077 -1048283,-373077 -402618,0 -745929,124434 -1024337,373077 -266323,241705 -432160,575616 -497286,1001956l2984386 0zm5891783 -2462034c651261,0 1166451,198959 1545346,596877 373076,390757 562635,923627 562635,1598611l0 3560001 -1397413 0 0 -3154922c0,-397918 -112572,-710568 -337492,-937950 -230962,-234543 -538912,-351815 -929669,-351815 -461925,7162 -829182,163599 -1095505,469087 -266547,305488 -396799,696245 -396799,1172493l0 2803107 -1385552 0 0 -5702224 1385552 0 0 1065740c390756,-731829 1071782,-1104905 2048897,-1119005zm6998927 5403674c-449840,277289 -929669,415822 -1426955,415822 -491467,0 -888266,-142113 -1202035,-426341 -313768,-291388 -467744,-717729 -467744,-1279022l0 -2813849 -799416 0 -11862 -1012700 811278 0 0 -1566606 1373691 0 0 1566606 1628375 0 0 1012700 -1628375 0 0 2568563c0,262966 47445,451407 148156,565098 100487,106529 248643,159793 449840,159793 213282,0 479605,-78106 805459,-234543l319588 1044479zm4459010 351815l0 -692888c-201421,248867 -456106,437084 -769875,565098 -313769,127790 -669165,191797 -1077602,191797 -396799,0 -746152,-74749 -1054102,-223801 -296089,-156437 -527051,-369495 -692888,-639623 -159794,-269904 -242600,-572035 -242600,-905946 0,-532870 189336,-948692 562412,-1247019 378895,-305488 911989,-461925 1598834,-469087l1663960 0 0 -149051c0,-334135 -112572,-593296 -331673,-778156 -219101,-184636 -538913,-277066 -959211,-277066 -538913,0 -1101548,177698 -1693502,532870l-503328 -959210c450063,-248643 852681,-426341 1219715,-532870 367257,-113691 799417,-170537 1285065,-170537 740110,0 1314383,177474 1717001,532870 414703,355172 621943,852682 627761,1492081l11862 3730538 -1361829 0zm-1516027 -1001957c396799,0 740109,-92206 1024336,-277065 284451,-191798 444245,-426341 479830,-703407l0 -511609 -1439040 0c-367034,0 -645442,56846 -822916,170537 -165837,106529 -254686,284227 -254686,532870 0,241705 88849,433502 266323,575616 183741,142113 432384,213058 746153,213058zm4488551 -6906721l1385552 0 0 7908678 -1385552 0 0 -7908678z"/>
  </g>
 </g>
</svg>
