<?xml version="1.0" encoding="UTF-8"?>
<!DOCTYPE svg PUBLIC "-//W3C//DTD SVG 1.0//EN" "http://www.w3.org/TR/2001/REC-SVG-20010904/DTD/svg10.dtd">
<!-- Creator: CorelDRAW X8 -->
<svg xmlns="http://www.w3.org/2000/svg" xml:space="preserve" width="390px" height="73px" version="1.0" style="shape-rendering:geometricPrecision; text-rendering:geometricPrecision; image-rendering:optimizeQuality; fill-rule:evenodd; clip-rule:evenodd"
viewBox="0 0 10180946 1918665"
 xmlns:xlink="http://www.w3.org/1999/xlink">
 <defs>
  <style type="text/css">
   <![CDATA[
    .fil3 {fill:none}
    .fil4 {fill:#E0E0E0}
    .fil0 {fill:#FAFAFA}
    .fil1 {fill:white;fill-opacity:0.000000}
    .fil2 {fill:#EEEEEE}
   ]]>
  </style>
     <clipPath id="id0">
      <path d="M9690656 69149c-24566,-42775 -70123,-69149 -119454,-69149l-9433222 0c-105924,0 -172232,114566 -119463,206413l393118 684287c24397,42497 24397,94768 0,137265l-393118 684286c-52769,91858 13539,206414 119463,206414l9433222 0c49331,0 94888,-26374 119454,-69149l471972 -821551c24417,-42497 24417,-94768 0,-137265l-471972 -821551z"/>
     </clipPath>
     <clipPath id="id1">
      <path d="M9690656 69149c-24566,-42775 -70123,-69149 -119454,-69149l-9433222 0c-105924,0 -172232,114566 -119463,206413l393118 684287c24397,42497 24397,94768 0,137265l-393118 684286c-52769,91858 13539,206414 119463,206414l9433222 0c49331,0 94888,-26374 119454,-69149l471972 -821551c24417,-42497 24417,-94768 0,-137265l-471972 -821551z"/>
     </clipPath>
 </defs>
 <g id="Camada_x0020_1">
  <metadata id="CorelCorpID_0Corel-Layer"/>
  <g id="_1748035900944">
   <g filter="url(#filter1_d_4151_32422)">
    <path class="fil0" d="M9690656 69149c-24566,-42775 -70123,-69149 -119454,-69149l-9433222 0c-105924,0 -172232,114566 -119463,206413l393118 684287c24397,42497 24397,94768 0,137265l-393118 684286c-52769,91858 13539,206414 119463,206414l9433222 0c49331,0 94888,-26374 119454,-69149l471972 -821551c24417,-42497 24417,-94768 0,-137265l-471972 -821551z"/>
    <g style="clip-path:url(#id0)">
     <polygon class="fil1" points="0,0 10180946,0 10180946,1918665 0,1918665 "/>
    </g>
    <g style="clip-path:url(#id1)">
     <g>
      <path id="1" class="fil2" d="M411635 890700l-29881 17156 29881 -17156zm0 137265l29861 17155 0 0 -29861 -17155zm9750993 0l-29861 -17156 0 0 29861 17156zm0 -137265l-29861 17156 0 0 29861 -17156zm-10144111 821551l-29881 -17155 29881 17155zm9672139 -1643102l-29851 17155 29851 -17155zm0 1780367l-29851 -17155 29851 17155zm-9672139 -1643103l-29881 17166 29881 -17166zm119463 -171963l9433222 0 0 -68890 -9433222 0 0 68890zm303516 839095l-393119 -684287 -59741 34321 393118 684277 59742 -34311zm0 171575c30516,-53115 30516,-118450 0,-171575l-59742 34311c18318,31877 18318,71076 0,102953l59742 34311zm-393119 684287l393119 -684287 -59742 -34311 -393118 684287 59741 34311zm9522825 154818l-9433222 0 0 68880 9433222 0 0 -68880zm561565 -873416l-471962 821552 59741 34321 471963 -821562 -59742 -34311zm0 -102953c18318,31877 18318,71076 0,102953l59742 34311c30517,-53115 30517,-118450 0,-171575l-59742 34311zm-471962 -821552l471962 821552 59742 -34311 -471963 -821552 -59741 34311zm-9672169 1608792c-65940,114814 16927,258009 149344,258009l0 -68880c-79460,0 -129189,-85927 -89603,-154818l-59741 -34311zm9582566 -1660646c37014,0 71176,19778 89603,51854l59741 -34311c-30725,-53473 -87685,-86433 -149344,-86433l0 68890zm0 1918655c61659,0 118619,-32960 149344,-86423l-59741 -34321c-18427,32076 -52589,51864 -89603,51864l0 68880zm-9433222 -1987545c-132417,0 -215284,143195 -149344,258019l59741 -34321c-39586,-68891 10143,-154808 89603,-154808l0 -68890z"/>
     </g>
    </g>
    <path class="fil3" d="M9690656 69149c-24566,-42775 -70123,-69149 -119454,-69149l-9433222 0c-105924,0 -172232,114566 -119463,206413l393118 684287c24397,42497 24397,94768 0,137265l-393118 684286c-52769,91858 13539,206414 119463,206414l9433222 0c49331,0 94888,-26374 119454,-69149l471972 -821551c24417,-42497 24417,-94768 0,-137265l-471972 -821551z"/>
   </g>
   <path class="fil4" d="M1287941 1130173l-29334 -70013 -161801 0 -29325 70013 -65761 0 145241 -331161 65762 0 143344 331161 -68126 0zm-168427 -124420l116384 0 -57715 -139093 -58669 139093zm423446 -130579c23663,0 44474,5523 62454,16559 18288,10729 32324,25868 42109,45417 10093,19560 15139,42110 15139,67649 0,25232 -4897,47474 -14672,66715 -9775,19232 -23652,34212 -41632,44941 -17980,10718 -38792,16082 -62444,16082 -18924,0 -35642,-3625 -50155,-10877 -14504,-7570 -26494,-18457 -35951,-32642l0 132933 -61500 0 0 -344880 61500 0 0 41632c9149,-14195 20812,-24923 35007,-32175 14513,-7570 31222,-11354 50145,-11354zm-13718 204377c20821,0 37848,-7093 51099,-21288 13242,-14504 19868,-32960 19868,-55351 0,-22391 -6626,-40689 -19868,-54884 -13251,-14186 -30278,-21288 -51099,-21288 -21129,0 -38315,7102 -51566,21288 -13242,14195 -19868,32493 -19868,54884 0,22708 6626,41155 19868,55351 13251,14195 30437,21288 51566,21288zm189079 -300417l61510 0 0 351039 -61510 0 0 -351039zm140384 97937l61500 0 0 253102 -61500 0 0 -253102zm30278 -108814c10093,0 18447,3467 25073,10410 6626,6934 9933,15765 9933,26494 0,10400 -3307,19082 -9933,26016 -6626,6944 -14980,10411 -25073,10411 -10093,0 -18457,-3467 -25073,-10411 -6626,-6934 -9934,-15616 -9934,-26016 0,-10729 3308,-19560 9934,-26494 6616,-6943 14980,-10410 25073,-10410zm281513 188761c-17027,-18606 -39110,-27914 -66229,-27914 -20503,0 -37222,6944 -50145,20821 -12616,13878 -18924,31858 -18924,53931 0,22708 6308,41006 18924,54884 12923,13877 29642,20811 50145,20811 30278,0 52987,-9934 68126,-29801l38314 31698c-11354,16401 -26334,29017 -44940,37848 -18606,8831 -40212,13241 -64818,13241 -24913,0 -47145,-5364 -66705,-16082 -19232,-10729 -34222,-25709 -44940,-44941 -10729,-19559 -16083,-41950 -16083,-67182 0,-25549 5354,-48099 16083,-67658 11036,-19550 26175,-34689 45417,-45418 19550,-10718 41950,-16082 67182,-16082 23017,0 43520,4102 61500,12298 18288,7887 33119,19241 44473,34063l-37380 35483zm233661 173155l0 -30755c-8831,11047 -20185,19401 -34062,25083 -13878,5672 -29812,8513 -47782,8513 -17662,0 -33278,-3318 -46838,-9934 -13251,-6943 -23503,-16400 -30754,-28390 -7252,-11980 -10878,-25391 -10878,-40212 0,-23652 8354,-42109 25073,-55351 16718,-13559 40371,-20503 70967,-20821l73798 0 0 -6616c0,-14831 -4888,-26334 -14663,-34540 -9775,-8195 -23970,-12298 -42576,-12298 -23970,0 -49053,7888 -75228,23653l-22232 -42576c19868,-11037 37848,-18924 53931,-23653 16400,-5046 35483,-7569 57248,-7569 32801,0 58192,7877 76162,23652 18298,15765 27596,37848 27914,66228l477 165586 -60557 0zm-67182 -44473c17663,0 32802,-4093 45417,-12298 12616,-8513 19709,-18924 21289,-31222l0 -22709 -63865 0c-16400,0 -28549,2524 -36427,7570 -7569,4728 -11354,12616 -11354,23652 0,10729 3944,19242 11821,25550 8206,6308 19242,9457 33119,9457zm411039 -4252c-9775,14186 -22390,25540 -37847,34063 -15457,8513 -33119,13877 -52987,16083l-8990 23652c13252,2205 23026,6626 29334,13252 6308,6933 9467,15139 9467,24596 0,13877 -5364,24447 -16092,31698 -10401,7570 -23812,11354 -40212,11354 -15457,0 -31222,-3307 -47305,-9933l11354 -33119c9775,3466 18765,5205 26961,5205 6000,0 10728,-1103 14195,-3308 3467,-2215 5205,-4887 5205,-8046 0,-3467 -2046,-6308 -6149,-8514 -4102,-2205 -9933,-3318 -17503,-3318l-14195 0 14662 -43996c-21447,-2831 -40371,-9934 -56772,-21288 -16082,-11354 -28539,-26017 -37370,-43997 -8831,-18288 -13252,-38791 -13252,-61500 0,-25549 5364,-48099 16093,-67658 11036,-19550 26175,-34689 45417,-45418 19550,-10718 41940,-16082 67172,-16082 23026,0 43530,4102 61510,12298 18288,7887 33109,19241 44463,34063l-37371 35483c-17026,-18606 -39109,-27914 -66228,-27914 -20503,0 -37222,6944 -50155,20821 -12616,13878 -18924,31858 -18924,53931 0,22708 6308,41006 18924,54884 12933,13877 29652,20811 50155,20811 30278,0 52987,-9934 68126,-29801l38314 31698zm193450 48725l0 -30755c-8831,11047 -20185,19401 -34063,25083 -13877,5672 -29811,8513 -47791,8513 -17662,0 -33268,-3318 -46828,-9934 -13251,-6943 -23503,-16400 -30755,-28390 -7251,-11980 -10877,-25391 -10877,-40212 0,-23652 8354,-42109 25073,-55351 16708,-13559 40371,-20503 70957,-20821l73807 0 0 -6616c0,-14831 -4887,-26334 -14662,-34540 -9785,-8195 -23970,-12298 -42586,-12298 -23970,0 -49043,7888 -75218,23653l-22232 -42576c19868,-11037 37848,-18924 53930,-23653 16401,-5046 35484,-7569 57239,-7569 32801,0 58192,7877 76172,23652 18298,15765 27596,37848 27914,66228l476 165586 -60556 0zm-67182 -44473c17662,0 32801,-4093 45417,-12298 12616,-8513 19709,-18924 21288,-31222l0 -22709 -63864 0c-16400,0 -28549,2524 -36437,7570 -7569,4728 -11354,12616 -11354,23652 0,10729 3944,19242 11831,25550 8205,6308 19242,9457 33119,9457zm96983 -306566c0,44156 -13877,66238 -41632,66238 -6944,0 -13718,-1261 -20344,-3784 -6308,-2523 -13401,-5990 -21288,-10411 -10093,-5672 -17186,-8513 -21288,-8513 -4729,0 -8047,1887 -9934,5672 -1897,3477 -2841,8672 -2841,15616l-39268 0c0,-44473 13718,-66705 41155,-66705 6944,0 13570,1261 19878,3785 6616,2523 13877,5990 21755,10410 10092,5672 17195,8513 21298,8513 4728,0 8036,-1738 9933,-5205 1888,-3785 2832,-8990 2832,-15616l39744 0zm210447 96040c26176,0 49202,5364 69069,16082 20186,10729 35802,25868 46838,45418 11354,19241 17036,41483 17036,66715 0,25539 -5682,48089 -17036,67649 -11036,19549 -26652,34688 -46838,45417 -19867,10718 -42893,16082 -69069,16082 -26493,0 -49828,-5364 -70013,-16082 -20185,-10729 -35960,-25868 -47315,-45417 -11036,-19560 -16559,-42110 -16559,-67649 0,-25232 5523,-47474 16559,-66715 11355,-19550 27130,-34689 47315,-45418 20185,-10718 43520,-16082 70013,-16082zm0 52519c-21447,0 -38791,7093 -52043,21289 -13242,14185 -19867,32642 -19867,55350 0,22709 6625,41156 19867,55351 13252,14196 30596,21288 52043,21288 20821,0 37848,-7092 51099,-21288 13242,-14195 19868,-32642 19868,-55351 0,-22708 -6626,-41165 -19868,-55350 -13251,-14196 -30278,-21289 -51099,-21289zm546456 -148559l0 351039 -61510 0 0 -40688c-9139,14195 -20970,25072 -35473,32642 -14196,7261 -30755,10887 -49679,10887 -23970,0 -45099,-5364 -63397,-16083 -17980,-11046 -32007,-26344 -42100,-45893 -10092,-19868 -15139,-42577 -15139,-68126 0,-25232 4888,-47464 14663,-66705 10092,-19560 24129,-34699 42109,-45417 18288,-10729 39109,-16083 62443,-16083 19242,0 36110,3785 50623,11354 14503,7570 26493,18447 35950,32642l0 -139569 61510 0zm-133420 302314c21139,0 38324,-7103 51576,-21288 13559,-14513 20334,-33119 20334,-55828 0,-22708 -6775,-41165 -20334,-55350 -13252,-14514 -30437,-21765 -51576,-21765 -21129,0 -38315,7251 -51566,21765 -13242,14185 -20027,32642 -20345,55350 318,22709 7103,41315 20345,55828 13251,14185 30437,21288 51566,21288zm317741 -206274c40370,0 70649,11513 90834,34539 20503,23027 30755,55351 30755,96984 0,8195 -159,14354 -477,18447l-186874 0c4103,17980 12457,32175 25073,42586 12934,10092 28699,15139 47315,15139 12923,0 25231,-2375 36893,-7103 11991,-5046 22401,-12139 31232,-21288l33109 34540c-12615,13877 -28062,24596 -46360,32165 -17981,7570 -38007,11354 -60080,11354 -25867,0 -48735,-5364 -68602,-16082 -19550,-10729 -34689,-25709 -45417,-44941 -10719,-19559 -16083,-41950 -16083,-67182 0,-25231 5364,-47622 16083,-67182 11036,-19549 26334,-34688 45894,-45417 19549,-11036 41791,-16559 66705,-16559zm65284 108814c-625,-18606 -6774,-33437 -18447,-44473 -11672,-11037 -27129,-16560 -46360,-16560 -17981,0 -33120,5523 -45418,16560 -11990,10728 -19400,25549 -22241,44473l132466 0zm190629 -184976l270139 0 0 56294 -103133 0 0 274867 -63864 0 0 -274867 -103142 0 0 -56294zm385370 76162c40371,0 70649,11513 90834,34539 20494,23027 30745,55351 30745,96984 0,8195 -159,14354 -466,18447l-186874 0c4092,17980 12457,32175 25073,42586 12933,10092 28698,15139 47304,15139 12934,0 25232,-2375 36904,-7103 11990,-5046 22391,-12139 31222,-21288l33119 34540c-12616,13877 -28073,24596 -46361,32165 -17980,7570 -38006,11354 -60089,11354 -25858,0 -48725,-5364 -68593,-16082 -19559,-10729 -34698,-25709 -45417,-44941 -10728,-19559 -16083,-41950 -16083,-67182 0,-25231 5355,-47622 16083,-67182 11036,-19549 26334,-34688 45884,-45417 19560,-11036 41791,-16559 66715,-16559zm65285 108814c-636,-18606 -6785,-33437 -18457,-44473 -11662,-11037 -27119,-16560 -46361,-16560 -17980,0 -33119,5523 -45417,16560 -11980,10728 -19391,25549 -22232,44473l132467 0zm259152 -38324c-12298,-7252 -25073,-12924 -38325,-17027 -12934,-4102 -24914,-6149 -35950,-6149 -10411,0 -18775,1888 -25083,5672 -5990,3467 -8980,8990 -8980,16560 0,7887 3785,14036 11354,18447 7878,4103 20186,8523 36894,13252 17663,5364 32176,10718 43530,16082 11354,5047 21129,12775 29334,23186 8514,10092 12775,23493 12775,40212 0,24595 -9467,43519 -28390,56771 -18924,13242 -42735,19867 -71434,19867 -19560,0 -38642,-2990 -57248,-8990 -18606,-6308 -34381,-15139 -47315,-26493l21298 -43053c11354,9785 24914,17513 40679,23186 15775,5364 30755,8046 44950,8046 11354,0 20344,-1897 26960,-5682 6944,-4103 10411,-10093 10411,-17980 0,-8831 -3944,-15447 -11831,-19868 -7878,-4410 -20652,-9298 -38315,-14662 -17036,-5046 -30913,-9934 -41632,-14672 -10728,-5047 -20026,-12457 -27914,-22232 -7887,-10093 -11831,-23185 -11831,-39268 0,-24914 8990,-43838 26970,-56771 18288,-13242 41156,-19868 68603,-19868 16708,0 33109,2364 49202,7093 16400,4738 30903,11354 43519,19877l-22231 44464zm226350 168893c-20185,12308 -41324,18457 -63397,18457 -21765,0 -39586,-6308 -53464,-18924 -13877,-12933 -20811,-31857 -20811,-56771l0 -124897 -35483 0 -477 -44950 35960 0 0 -69537 61023 0 0 69537 72388 0 0 44950 -72388 0 0 114010c0,11672 2216,20036 6626,25082 4421,4729 11037,7093 19868,7093 9466,0 21447,-3467 35960,-10411l14195 46361zm151470 -239383c40371,0 70649,11513 90834,34539 20494,23027 30745,55351 30745,96984 0,8195 -159,14354 -467,18447l-186873 0c4092,17980 12456,32175 25072,42586 12934,10092 28699,15139 47305,15139 12934,0 25232,-2375 36904,-7103 11990,-5046 22390,-12139 31222,-21288l33119 34540c-12616,13877 -28073,24596 -46361,32165 -17980,7570 -38007,11354 -60089,11354 -25858,0 -48725,-5364 -68593,-16082 -19560,-10729 -34699,-25709 -45417,-44941 -10729,-19559 -16083,-41950 -16083,-67182 0,-25231 5354,-47622 16083,-67182 11036,-19549 26334,-34688 45884,-45417 19559,-11036 41791,-16559 66715,-16559zm65285 108814c-636,-18606 -6785,-33437 -18457,-44473 -11662,-11037 -27119,-16560 -46361,-16560 -17980,0 -33119,5523 -45417,16560 -11980,10728 -19391,25549 -22232,44473l132467 0z"/>
  </g>
 </g>
</svg>
