<?xml version="1.0" encoding="UTF-8"?>
<!DOCTYPE svg PUBLIC "-//W3C//DTD SVG 1.0//EN" "http://www.w3.org/TR/2001/REC-SVG-20010904/DTD/svg10.dtd">
<!-- Creator: CorelDRAW X8 -->
<svg xmlns="http://www.w3.org/2000/svg" xml:space="preserve" width="390px" height="75px" version="1.0" style="shape-rendering:geometricPrecision; text-rendering:geometricPrecision; image-rendering:optimizeQuality; fill-rule:evenodd; clip-rule:evenodd"
viewBox="0 0 12816139 2445650"
 xmlns:xlink="http://www.w3.org/1999/xlink">
 <defs>
  <style type="text/css">
   <![CDATA[
    .str0 {stroke:#00995D;stroke-width:37405.6}
    .fil0 {fill:#FEFEFE}
    .fil1 {fill:#017849}
   ]]>
  </style>
 </defs>
 <g id="Camada_x0020_1">
  <metadata id="CorelCorpID_0Corel-Layer"/>
  <path class="fil0 str0" d="M12032119 18703c61919,0 119099,33104 149934,86793l592404 1031184c30648,53340 30648,118950 0,172290l-592404 1031184c-30835,53689 -88015,86793 -149934,86793l-11840266 0c-132952,0 -216179,-143787 -149946,-259083l493429 -858894c30622,-53340 30622,-118950 0,-172290l-493429 -858894c-66233,-115284 16994,-259083 149946,-259083l11840266 0z"/>
  <path class="fil1" d="M1635246 1437258l-36820 -87878 -203087 0 -36807 87878 -82541 0 182302 -415663 82541 0 179921 415663 -85509 0zm-211404 -156168l146081 0 -72442 -174584 -73639 174584zm531496 -163898c29700,0 55821,6932 78389,20785 22955,13466 40573,32468 52854,57006 12668,24550 19002,52854 19002,84910 0,31670 -6147,59587 -18416,83739 -12269,24139 -29687,42941 -52255,56407 -22568,13454 -48690,20187 -78377,20187 -23753,0 -44737,-4551 -62954,-13653 -18204,-9501 -33253,-23167 -45123,-40972l0 166854 -77193 0 0 -432882 77193 0 0 52256c11483,-17818 26121,-31284 43939,-40386 18216,-9501 39188,-14251 62941,-14251zm-17219 256527c26134,0 47505,-8903 64138,-26720 16620,-18204 24937,-41371 24937,-69475 0,-28104 -8317,-51071 -24937,-68888 -16633,-17805 -38004,-26720 -64138,-26720 -26521,0 -48091,8915 -64724,26720 -16621,17817 -24937,40784 -24937,68888 0,28503 8316,51657 24937,69475 16633,17817 38203,26720 64724,26720zm237326 -377073l77205 0 0 440612 -77205 0 0 -440612zm176205 122927l77192 0 0 317685 -77192 0 0 -317685zm38004 -136580c12668,0 23154,4351 31470,13067 8317,8703 12469,19787 12469,33253 0,13055 -4152,23953 -12469,32656 -8316,8715 -18802,13067 -31470,13067 -12668,0 -23167,-4352 -31471,-13067 -8316,-8703 -12468,-19601 -12468,-32656 0,-13466 4152,-24550 12468,-33253 8304,-8716 18803,-13067 31471,-13067zm353345 236927c-21371,-23354 -49089,-35037 -83128,-35037 -25735,0 -46719,8716 -62941,26134 -15835,17419 -23752,39987 -23752,67692 0,28503 7917,51470 23752,68888 16222,17419 37206,26122 62941,26122 38004,0 66507,-12469 85509,-37406l48091 39787c-14251,20586 -33054,36421 -56407,47505 -23354,11085 -50473,16621 -81357,16621 -31271,0 -59176,-6733 -83726,-20187 -24139,-13466 -42954,-32268 -56408,-56407 -13466,-24551 -20186,-52655 -20186,-84325 0,-32069 6720,-60372 20186,-84923 13853,-24538 32855,-43540 57006,-57006 24538,-13453 52655,-20186 84325,-20186 28889,0 54624,5149 77192,15436 22955,9900 41570,24151 55822,42754l-46919 44538zm293284 217338l0 -38602c-11084,13865 -25336,24351 -42754,31483 -17419,7119 -37418,10685 -59974,10685 -22169,0 -41769,-4164 -58789,-12468 -16633,-8716 -29500,-20586 -38602,-35635 -9102,-15037 -13653,-31870 -13653,-50473 0,-29687 10486,-52854 31470,-69474 20985,-17020 50672,-25735 89075,-26134l92629 0 0 -8304c0,-18616 -6135,-33054 -18404,-43353 -12269,-10287 -30086,-15436 -53440,-15436 -30086,0 -61569,9900 -94424,29687l-27904 -53440c24937,-13852 47505,-23752 67691,-29687 20586,-6334 44538,-9501 71856,-9501 41171,0 73041,9887 95596,29687 22967,19788 34638,47505 35037,83128l598 207837 -76008 0zm-84324 -55821c22169,0 41171,-5137 57006,-15436 15835,-10686 24737,-23753 26720,-39189l0 -28503 -80160 0c-20586,0 -35835,3167 -45722,9501 -9501,5935 -14252,15835 -14252,29688 0,13466 4950,24151 14838,32069 10299,7917 24151,11870 41570,11870zm515922 -5337c-12269,17805 -28104,32057 -47505,42755 -19401,10685 -41570,17418 -66507,20186l-11284 29688c16633,2768 28902,8316 36820,16633 7917,8703 11882,19002 11882,30872 0,17419 -6733,30685 -20199,39787 -13055,9501 -29887,14252 -50473,14252 -19401,0 -39188,-4152 -59375,-12469l14252 -41570c12269,4352 23553,6534 33839,6534 7531,0 13466,-1384 17818,-4153 4351,-2780 6533,-6134 6533,-10099 0,-4352 -2568,-7918 -7718,-10686 -5149,-2768 -12468,-4164 -21969,-4164l-17818 0 18404 -55223c-26920,-3554 -50672,-12469 -71258,-26720 -20186,-14252 -35822,-32655 -46906,-55223 -11085,-22955 -16633,-48690 -16633,-77193 0,-32069 6733,-60372 20199,-84923 13852,-24538 32854,-43540 57006,-57006 24538,-13453 52642,-20186 84312,-20186 28902,0 54637,5149 77205,15436 22955,9900 41558,24151 55809,42754l-46906 44538c-21371,-23354 -49089,-35037 -83128,-35037 -25735,0 -46720,8716 -62954,26134 -15835,17419 -23752,39987 -23752,67692 0,28503 7917,51470 23752,68888 16234,17419 37219,26122 62954,26122 38004,0 66507,-12469 85509,-37406l48091 39787zm242812 61158l0 -38602c-11085,13865 -25336,24351 -42755,31483 -17418,7119 -37418,10685 -59986,10685 -22169,0 -41757,-4164 -58776,-12468 -16633,-8716 -29501,-20586 -38603,-35635 -9102,-15037 -13653,-31870 -13653,-50473 0,-29687 10486,-52854 31471,-69474 20972,-17020 50672,-25735 89062,-26134l92642 0 0 -8304c0,-18616 -6135,-33054 -18404,-43353 -12282,-10287 -30087,-15436 -53453,-15436 -30086,0 -61557,9900 -94411,29687l-27905 -53440c24937,-13852 47505,-23752 67692,-29687 20585,-6334 44537,-9501 71843,-9501 41172,0 73041,9887 95609,29687 22967,19788 34638,47505 35037,83128l598 207837 -76008 0zm-84325 -55821c22169,0 41171,-5137 57006,-15436 15835,-10686 24738,-23753 26721,-39189l0 -28503 -80161 0c-20585,0 -35834,3167 -45734,9501 -9501,5935 -14252,15835 -14252,29688 0,13466 4950,24151 14850,32069 10299,7917 24152,11870 41570,11870zm121731 -384791c0,55423 -17419,83140 -52256,83140 -8715,0 -17219,-1583 -25536,-4750 -7917,-3167 -16820,-7519 -26720,-13067 -12668,-7120 -21570,-10686 -26720,-10686 -5935,0 -10099,2369 -12468,7120 -2382,4364 -3566,10885 -3566,19600l-49288 0c0,-55822 17219,-83726 51657,-83726 8715,0 17032,1583 24949,4750 8304,3167 17419,7519 27306,13067 12668,7120 21583,10686 26733,10686 5935,0 10087,-2182 12468,-6534 2370,-4750 3554,-11284 3554,-19600l49887 0zm264145 120546c32855,0 61757,6733 86694,20186 25336,13466 44936,32468 58789,57006 14251,24152 21383,52069 21383,83739 0,32056 -7132,60360 -21383,84910 -13853,24538 -33453,43540 -58789,57006 -24937,13454 -53839,20187 -86694,20187 -33253,0 -62542,-6733 -87878,-20187 -25336,-13466 -45136,-32468 -59388,-57006 -13852,-24550 -20785,-52854 -20785,-84910 0,-31670 6933,-59587 20785,-83739 14252,-24538 34052,-43540 59388,-57006 25336,-13453 54625,-20186 87878,-20186zm0 65921c-26919,0 -48689,8902 -65322,26720 -16621,17805 -24938,40971 -24938,69474 0,28503 8317,51657 24938,69475 16633,17817 38403,26720 65322,26720 26134,0 47505,-8903 64138,-26720 16621,-17818 24937,-40972 24937,-69475 0,-28503 -8316,-51669 -24937,-69474 -16633,-17818 -38004,-26720 -64138,-26720zm685893 -186467l0 440612 -77205 0 0 -51071c-11471,17818 -26321,31471 -44525,40972 -17817,9114 -38602,13665 -62355,13665 -30087,0 -56607,-6733 -79574,-20186 -22568,-13865 -40174,-33067 -52842,-57605 -12668,-24937 -19002,-53440 -19002,-85509 0,-31670 6135,-59574 18404,-83726 12668,-24550 30286,-43552 52854,-57006 22954,-13466 49088,-20186 78377,-20186 24152,0 45323,4750 63540,14251 18204,9501 33253,23154 45123,40972l0 -175183 77205 0zm-167464 379454c26533,0 48103,-8915 64736,-26720 17020,-18216 25523,-41570 25523,-70073 0,-28503 -8503,-51669 -25523,-69474 -16633,-18217 -38203,-27319 -64736,-27319 -26521,0 -48092,9102 -64725,27319 -16620,17805 -25136,40971 -25535,69474 399,28503 8915,51857 25535,70073 16633,17805 38204,26720 64725,26720zm398818 -258908c50672,0 88676,14451 114012,43353 25735,28902 38602,69474 38602,121730 0,10286 -199,18017 -598,23154l-234558 0c5149,22568 15635,40385 31470,53452 16234,12668 36022,19002 59388,19002 16222,0 31670,-2980 46308,-8915 15050,-6334 28117,-15236 39201,-26720l41558 43353c-15835,17419 -35224,30872 -58191,40373 -22568,9501 -47704,14252 -75409,14252 -32468,0 -61171,-6733 -86108,-20187 -24538,-13466 -43540,-32268 -57006,-56407 -13454,-24551 -20187,-52655 -20187,-84325 0,-31670 6733,-59774 20187,-84324 13852,-24538 33054,-43540 57604,-57006 24538,-13853 52455,-20785 83727,-20785zm81943 136580c-786,-23354 -8504,-41969 -23154,-55822 -14651,-13852 -34052,-20785 -58191,-20785 -22568,0 -41570,6933 -57006,20785 -15050,13466 -24351,32069 -27917,55822l166268 0zm239270 -232177l339069 0 0 70660 -129448 0 0 345003 -80160 0 0 -345003 -129461 0 0 -70660zm483704 95597c50672,0 88676,14451 114012,43353 25723,28902 38590,69474 38590,121730 0,10286 -199,18017 -586,23154l-234557 0c5137,22568 15635,40385 31470,53452 16234,12668 36022,19002 59375,19002 16234,0 31670,-2980 46321,-8915 15049,-6334 28104,-15236 39188,-26720l41570 43353c-15835,17419 -35236,30872 -58190,40373 -22568,9501 -47705,14252 -75422,14252 -32456,0 -61158,-6733 -86095,-20187 -24551,-13466 -43553,-32268 -57007,-56407 -13466,-24551 -20186,-52655 -20186,-84325 0,-31670 6720,-59774 20186,-84324 13853,-24538 33055,-43540 57593,-57006 24550,-13853 52455,-20785 83738,-20785zm81943 136580c-798,-23354 -8516,-41969 -23166,-55822 -14638,-13852 -34039,-20785 -58191,-20785 -22568,0 -41570,6933 -57006,20785 -15037,13466 -24338,32069 -27904,55822l166267 0zm325279 -48104c-15436,-9102 -31471,-16221 -48104,-21371 -16234,-5149 -31271,-7718 -45123,-7718 -13067,0 -23566,2369 -31483,7120 -7519,4351 -11272,11284 -11272,20785 0,9900 4751,17618 14252,23154 9887,5149 25336,10698 46308,16633 22169,6733 40385,13453 54637,20186 14251,6334 26520,16035 36819,29102 10686,12668 16035,29488 16035,50472 0,30872 -11883,54625 -35635,71258 -23753,16620 -53640,24937 -89661,24937 -24551,0 -48503,-3753 -71856,-11284 -23354,-7918 -43154,-19002 -59388,-33254l26733 -54038c14251,12281 31271,21982 51058,29101 19800,6733 38603,10100 56420,10100 14252,0 25536,-2382 33840,-7132 8715,-5150 13067,-12668 13067,-22568 0,-11085 -4950,-19389 -14850,-24937 -9888,-5536 -25922,-11671 -48091,-18404 -21384,-6334 -38802,-12468 -52256,-18416 -13466,-6334 -25136,-15635 -35036,-27904 -9900,-12668 -14850,-29102 -14850,-49288 0,-31271 11284,-55024 33852,-71258 22954,-16620 51657,-24937 86107,-24937 20972,0 41558,2968 61757,8903 20585,5947 38789,14251 54624,24949l-27904 55809zm284108 211990c-25337,15448 -51870,23166 -79575,23166 -27318,0 -49687,-7917 -67105,-23752 -17419,-16234 -26122,-39987 -26122,-71258l0 -156766 -44537 0 -599 -56420 45136 0 0 -87280 76594 0 0 87280 90859 0 0 56420 -90859 0 0 143101c0,14650 2781,25149 8317,31483 5548,5935 13852,8902 24937,8902 11882,0 26919,-4351 45136,-13067l17818 58191zm190119 -300466c50673,0 88677,14451 114013,43353 25722,28902 38590,69474 38590,121730 0,10286 -200,18017 -586,23154l-234558 0c5137,22568 15635,40385 31470,53452 16234,12668 36022,19002 59375,19002 16235,0 31671,-2980 46321,-8915 15050,-6334 28104,-15236 39189,-26720l41570 43353c-15835,17419 -35236,30872 -58191,40373 -22568,9501 -47704,14252 -75422,14252 -32456,0 -61158,-6733 -86095,-20187 -24551,-13466 -43553,-32268 -57006,-56407 -13466,-24551 -20187,-52655 -20187,-84325 0,-31670 6721,-59774 20187,-84324 13852,-24538 33054,-43540 57592,-57006 24550,-13853 52455,-20785 83738,-20785zm81944 136580c-798,-23354 -8516,-41969 -23167,-55822 -14638,-13852 -34039,-20785 -58191,-20785 -22568,0 -41570,6933 -57006,20785 -15037,13466 -24338,32069 -27904,55822l166268 0z"/>
 </g>
</svg>
