<?xml version="1.0" encoding="UTF-8"?>
<!DOCTYPE svg PUBLIC "-//W3C//DTD SVG 1.0//EN" "http://www.w3.org/TR/2001/REC-SVG-20010904/DTD/svg10.dtd">
<!-- Creator: CorelDRAW X8 -->
<svg xmlns="http://www.w3.org/2000/svg" xml:space="preserve" width="390px" height="74px" version="1.0" style="shape-rendering:geometricPrecision; text-rendering:geometricPrecision; image-rendering:optimizeQuality; fill-rule:evenodd; clip-rule:evenodd"
viewBox="0 0 12807765 2433959"
 xmlns:xlink="http://www.w3.org/1999/xlink">
 <defs>
  <style type="text/css">
   <![CDATA[
    .str0 {stroke:#00995D;stroke-width:24945}
    .fil0 {fill:#FEFEFE}
    .fil1 {fill:#017849}
   ]]>
  </style>
 </defs>
 <g id="Camada_x0020_1">
  <metadata id="CorelCorpID_0Corel-Layer"/>
  <g id="_1712029766128">
   <path class="fil0 str0" d="M12029731 12473c61938,0 119137,33114 149981,86821l592594 1031513c30658,53358 30658,118988 0,172345l-592594 1031514c-30844,53706 -88043,86821 -149981,86821l-11844053 0c-132994,0 -216248,-143833 -149994,-259166l493587 -859169c30632,-53357 30632,-118987 0,-172345l-493587 -859168c-66254,-115321 17000,-259166 149994,-259166l11844053 0z"/>
   <path class="fil1" d="M1629533 1431482l-36832 -87906 -203152 0 -36819 87906 -82568 0 182361 -415796 82568 0 179978 415796 -85536 0zm-211472 -156218l146128 0 -72465 -174640 -73663 174640zm531666 -163951c29709,0 55839,6934 78414,20791 22962,13471 40586,32479 52871,57025 12672,24558 19009,52871 19009,84937 0,31680 -6149,59606 -18422,83766 -12273,24146 -29697,42955 -52273,56425 -22575,13458 -48705,20193 -78402,20193 -23760,0 -44751,-4552 -62973,-13657 -18210,-9504 -33265,-23174 -45138,-40985l0 166907 -77218 0 0 -433020 77218 0 0 52272c11487,-17823 26129,-31293 43953,-40398 18222,-9504 39201,-14256 62961,-14256zm-17225 256609c26143,0 47521,-8905 64159,-26729 16626,-18210 24945,-41383 24945,-69496 0,-28113 -8319,-51088 -24945,-68911 -16638,-17811 -38016,-26729 -64159,-26729 -26529,0 -48106,8918 -64744,26729 -16626,17823 -24945,40798 -24945,68911 0,28512 8319,51673 24945,69496 16638,17824 38215,26729 64744,26729zm237402 -377194l77230 0 0 440754 -77230 0 0 -440754zm176261 122967l77218 0 0 317787 -77218 0 0 -317787zm38017 -136624c12672,0 23161,4353 31480,13071 8319,8706 12473,19794 12473,33264 0,13059 -4154,23960 -12473,32666 -8319,8718 -18808,13071 -31480,13071 -12672,0 -23174,-4353 -31481,-13071 -8319,-8706 -12473,-19607 -12473,-32666 0,-13470 4154,-24558 12473,-33264 8307,-8718 18809,-13071 31481,-13071zm353458 237003c-21378,-23361 -49104,-35048 -83154,-35048 -25744,0 -46735,8718 -62961,26142 -15841,17424 -23761,40000 -23761,67713 0,28513 7920,51487 23761,68911 16226,17424 37217,26130 62961,26130 38016,0 66528,-12473 85536,-37418l48107 39800c-14256,20592 -33065,36432 -56426,47520 -23361,11088 -50489,16626 -81383,16626 -31281,0 -59195,-6735 -83753,-20193 -24147,-13470 -42968,-32279 -56426,-56425 -13470,-24559 -20193,-52672 -20193,-84352 0,-32079 6723,-60392 20193,-84950 13857,-24546 32865,-43554 57025,-57024 24546,-13458 52671,-20193 84351,-20193 28899,0 54642,5151 77218,15441 22961,9903 41583,24159 55839,42768l-46934 44552zm293378 217408l0 -38615c-11088,13869 -25344,24359 -42768,31493 -17424,7122 -37430,10689 -59993,10689 -22176,0 -41783,-4166 -58808,-12473 -16638,-8718 -29510,-20592 -38615,-35646 -9104,-15042 -13657,-31880 -13657,-50489 0,-29697 10489,-52871 31481,-69496 20991,-17025 50688,-25744 89103,-26143l92658 0 0 -8307c0,-18621 -6136,-33064 -18409,-43366 -12273,-10290 -30096,-15441 -53457,-15441 -30096,0 -61589,9903 -94454,29697l-27914 -53458c24945,-13856 47520,-23760 67713,-29697 20592,-6336 44552,-9504 71879,-9504 41185,0 73064,9891 95627,29697 22974,19794 34649,47521 35048,83155l599 207904 -76033 0zm-84351 -55840c22176,0 41184,-5138 57024,-15441 15840,-10688 24745,-23760 26728,-39201l0 -28512 -80185 0c-20592,0 -35846,3168 -45737,9504 -9504,5937 -14256,15840 -14256,29697 0,13471 4952,24160 14842,32080 10303,7920 24160,11873 41584,11873zm516087 -5338c-12273,17811 -28113,32067 -47520,42768 -19408,10689 -41584,17424 -66529,20193l-11287 29697c16638,2769 28911,8320 36831,16639 7920,8706 11886,19008 11886,30882 0,17424 -6735,30694 -20205,39799 -13059,9504 -29897,14256 -50489,14256 -19407,0 -39201,-4153 -59394,-12472l14256 -41583c12273,4353 23561,6535 33851,6535 7533,0 13470,-1384 17823,-4153 4353,-2781 6535,-6137 6535,-10103 0,-4353 -2569,-7920 -7720,-10689 -5151,-2769 -12473,-4166 -21977,-4166l-17823 0 18410 -55240c-26929,-3555 -50689,-12473 -71281,-26729 -20193,-14256 -35833,-32665 -46921,-55241 -11088,-22961 -16639,-48705 -16639,-77217 0,-32079 6735,-60392 20206,-84950 13857,-24546 32865,-43554 57024,-57024 24546,-13458 52659,-20193 84339,-20193 28911,0 54655,5151 77230,15441 22962,9903 41571,24159 55827,42768l-46922 44552c-21378,-23361 -49104,-35048 -83154,-35048 -25743,0 -46734,8718 -62974,26142 -15840,17424 -23760,40000 -23760,67713 0,28513 7920,51487 23760,68911 16240,17424 37231,26130 62974,26130 38016,0 66528,-12473 85536,-37418l48107 39800zm242889 61178l0 -38615c-11088,13869 -25344,24359 -42768,31493 -17424,7122 -37430,10689 -60005,10689 -22176,0 -41770,-4166 -58795,-12473 -16639,-8718 -29510,-20592 -38615,-35646 -9105,-15042 -13658,-31880 -13658,-50489 0,-29697 10490,-52871 31481,-69496 20979,-17025 50688,-25744 89091,-26143l92671 0 0 -8307c0,-18621 -6137,-33064 -18410,-43366 -12285,-10290 -30096,-15441 -53469,-15441 -30096,0 -61577,9903 -94442,29697l-27914 -53458c24945,-13856 47521,-23760 67714,-29697 20592,-6336 44551,-9504 71866,-9504 41184,0 73064,9891 95639,29697 22975,19794 34649,47521 35048,83155l599 207904 -76033 0zm-84351 -55840c22176,0 41184,-5138 57024,-15441 15840,-10688 24746,-23760 26729,-39201l0 -28512 -80186 0c-20592,0 -35846,3168 -45749,9504 -9504,5937 -14256,15840 -14256,29697 0,13471 4951,24160 14855,32080 10302,7920 24159,11873 41583,11873zm121769 -384914c0,55441 -17424,83167 -52272,83167 -8719,0 -17225,-1584 -25544,-4752 -7920,-3168 -16825,-7521 -26729,-13071 -12672,-7122 -21577,-10689 -26728,-10689 -5937,0 -10103,2370 -12473,7122 -2382,4365 -3567,10888 -3567,19607l-49304 0c0,-55840 17225,-83753 51674,-83753 8718,0 17037,1584 24957,4752 8307,3168 17425,7521 27315,13071 12672,7122 21590,10689 26741,10689 5937,0 10091,-2183 12473,-6536 2370,-4752 3554,-11287 3554,-19607l49903 0zm264230 120585c32865,0 61776,6735 86721,20193 25344,13470 44951,32478 58808,57024 14256,24159 21391,52085 21391,83765 0,32067 -7135,60380 -21391,84938 -13857,24546 -33464,43554 -58808,57024 -24945,13458 -53856,20193 -86721,20193 -33264,0 -62562,-6735 -87906,-20193 -25344,-13470 -45151,-32478 -59407,-57024 -13857,-24558 -20791,-52871 -20791,-84938 0,-31680 6934,-59606 20791,-83765 14256,-24546 34063,-43554 59407,-57024 25344,-13458 54642,-20193 87906,-20193zm0 65942c-26928,0 -48705,8905 -65343,26728 -16626,17811 -24945,40985 -24945,69497 0,28512 8319,51674 24945,69497 16638,17823 38415,26729 65343,26729 26142,0 47520,-8906 64159,-26729 16625,-17823 24945,-40985 24945,-69497 0,-28512 -8320,-51686 -24945,-69497 -16639,-17823 -38017,-26728 -64159,-26728zm686112 -186527l0 440754 -77229 0 0 -51088c-11475,17824 -26330,31481 -44540,40985 -17823,9117 -38614,13670 -62375,13670 -30096,0 -56625,-6735 -79599,-20193 -22575,-13869 -40187,-33077 -52859,-57623 -12672,-24945 -19008,-53457 -19008,-85536 0,-31681 6137,-59594 18410,-83753 12672,-24559 30295,-43567 52871,-57025 22962,-13470 49104,-20193 78402,-20193 24159,0 45337,4752 63560,14256 18210,9505 33264,23162 45138,40985l0 -175239 77229 0zm-167518 379576c26542,0 48119,-8918 64757,-26728 17025,-18223 25532,-41584 25532,-70096 0,-28512 -8507,-51686 -25532,-69497 -16638,-18222 -38215,-27327 -64757,-27327 -26529,0 -48106,9105 -64745,27327 -16625,17811 -25144,40985 -25543,69497 399,28512 8918,51873 25543,70096 16639,17810 38216,26728 64745,26728zm398946 -258991c50688,0 88704,14455 114048,43367 25744,28911 38615,69496 38615,121769 0,10289 -199,18022 -598,23161l-234633 0c5151,22575 15640,40398 31480,53470 16240,12672 36033,19008 59407,19008 16227,0 31680,-2981 46323,-8918 15054,-6336 28125,-15241 39213,-26729l41571 43367c-15840,17424 -35235,30882 -58209,40386 -22575,9504 -47720,14256 -75434,14256 -32478,0 -61190,-6735 -86135,-20193 -24546,-13470 -43554,-32279 -57024,-56425 -13458,-24559 -20193,-52672 -20193,-84352 0,-31680 6735,-59793 20193,-84351 13857,-24546 33065,-43554 57623,-57025 24546,-13857 52472,-20791 83753,-20791zm81969 136623c-786,-23361 -8506,-41982 -23161,-55839 -14656,-13857 -34063,-20792 -58210,-20792 -22575,0 -41583,6935 -57024,20792 -15054,13470 -24359,32079 -27926,55839l166321 0zm239347 -232250l339178 0 0 70682 -129490 0 0 345114 -80186 0 0 -345114 -129502 0 0 -70682zm483859 95627c50688,0 88704,14455 114048,43367 25731,28911 38603,69496 38603,121769 0,10289 -200,18022 -586,23161l-234633 0c5138,22575 15640,40398 31480,53470 16240,12672 36033,19008 59394,19008 16240,0 31681,-2981 46336,-8918 15054,-6336 28113,-15241 39201,-26729l41583 43367c-15840,17424 -35247,30882 -58209,40386 -22575,9504 -47720,14256 -75446,14256 -32466,0 -61178,-6735 -86123,-20193 -24558,-13470 -43566,-32279 -57024,-56425 -13470,-24559 -20193,-52672 -20193,-84352 0,-31680 6723,-59793 20193,-84351 13857,-24546 33065,-43554 57610,-57025 24559,-13857 52472,-20791 83766,-20791zm81969 136623c-798,-23361 -8519,-41982 -23174,-55839 -14643,-13857 -34050,-20792 -58209,-20792 -22575,0 -41583,6935 -57024,20792 -15042,13470 -24347,32079 -27914,55839l166321 0zm325383 -48118c-15441,-9105 -31481,-16227 -48119,-21378 -16239,-5151 -31281,-7721 -45138,-7721 -13071,0 -23573,2370 -31493,7122 -7521,4353 -11275,11288 -11275,20792 0,9903 4752,17623 14256,23161 9890,5151 25344,10701 46323,16638 22176,6736 40398,13458 54654,20193 14256,6336 26529,16040 36831,29111 10689,12672 16040,29498 16040,50489 0,30882 -11886,54642 -35646,71280 -23760,16626 -53657,24945 -89690,24945 -24559,0 -48518,-3754 -71879,-11287 -23361,-7920 -43168,-19008 -59407,-33265l26741 -54055c14256,12285 31281,21989 51075,29110 19807,6736 38615,10103 56438,10103 14256,0 25544,-2382 33851,-7134 8718,-5151 13071,-12672 13071,-22575 0,-11088 -4952,-19395 -14855,-24945 -9891,-5538 -25930,-11675 -48106,-18410 -21391,-6336 -38815,-12472 -52273,-18422 -13470,-6336 -25144,-15640 -35047,-27913 -9904,-12672 -14855,-29111 -14855,-49304 0,-31281 11288,-55041 33863,-71280 22962,-16626 51673,-24945 86135,-24945 20979,0 41571,2968 61776,8905 20592,5949 38802,14256 54642,24958l-27913 55827zm284198 212057c-25344,15453 -51885,23174 -79599,23174 -27328,0 -49703,-7920 -67127,-23760 -17424,-16239 -26130,-39999 -26130,-71281l0 -156816 -44552 0 -599 -56438 45151 0 0 -87308 76618 0 0 87308 90888 0 0 56438 -90888 0 0 143147c0,14655 2782,25157 8320,31493 5550,5937 13857,8905 24945,8905 11886,0 26928,-4353 45150,-13071l17823 58209zm190181 -300562c50688,0 88704,14455 114049,43367 25730,28911 38602,69496 38602,121769 0,10289 -200,18022 -586,23161l-234633 0c5139,22575 15641,40398 31481,53470 16239,12672 36033,19008 59394,19008 16239,0 31680,-2981 46335,-8918 15054,-6336 28113,-15241 39201,-26729l41583 43367c-15840,17424 -35247,30882 -58209,40386 -22575,9504 -47720,14256 -75446,14256 -32466,0 -61178,-6735 -86123,-20193 -24558,-13470 -43566,-32279 -57024,-56425 -13470,-24559 -20193,-52672 -20193,-84352 0,-31680 6723,-59793 20193,-84351 13857,-24546 33065,-43554 57611,-57025 24558,-13857 52471,-20791 83765,-20791zm81969 136623c-798,-23361 -8518,-41982 -23174,-55839 -14642,-13857 -34050,-20792 -58209,-20792 -22575,0 -41583,6935 -57024,20792 -15042,13470 -24346,32079 -27914,55839l166321 0z"/>
  </g>
 </g>
</svg>
