<?xml version="1.0" encoding="UTF-8"?>
<!DOCTYPE svg PUBLIC "-//W3C//DTD SVG 1.0//EN" "http://www.w3.org/TR/2001/REC-SVG-20010904/DTD/svg10.dtd">
<!-- Creator: CorelDRAW X8 -->
<svg xmlns="http://www.w3.org/2000/svg" xml:space="preserve" width="2480px" height="3508px" version="1.0" style="shape-rendering:geometricPrecision; text-rendering:geometricPrecision; image-rendering:optimizeQuality; fill-rule:evenodd; clip-rule:evenodd"
viewBox="0 0 248000000 350742857"
 xmlns:xlink="http://www.w3.org/1999/xlink">
 <defs>
  <style type="text/css">
   <![CDATA[
    .fil0 {fill:#01137F}
   ]]>
  </style>
 </defs>
 <g id="Camada_x0020_1">
  <metadata id="CorelCorpID_0Corel-Layer"/>
  <path class="fil0" d="M-158286236 444628335c1107733,95775 2333207,292168 3407284,-13226 1781584,-506747 3058902,-1620621 4001066,-3196366 368103,-615749 663814,-1968766 643383,-2838537 -51017,-2180511 -1091908,-3648080 -2443745,-4719913 -693219,-549615 -1413245,-827611 -2529718,-1129935 -1068644,-289215 -2148624,11337 -3120076,68377 165452,-576305 1286057,-1235276 1833547,-1546811 2444925,-1391044 5432617,-1827996 8040278,-565322 1060613,513596 2269790,1188865 3022529,2050606 7423467,8498251 -3741965,19120682 -11993398,12815341 -801866,-612679 -704438,-426560 -861150,-924214zm4143489 -4517851c-1107733,-95775 -2333089,-292168 -3407283,13345 -1781585,506746 -3058903,1620621 -4001067,3196365 -368103,615631 -663813,1968648 -643383,2838537 51017,2180393 1091909,3648080 2443745,4719795 693219,549615 1413364,827729 2529718,1129935 1068644,289333 2148625,-11337 3120076,-68259 -165451,576187 -1286057,1235158 -1833547,1546693 -2444925,1391162 -5432617,1828115 -8040278,565322 -1060613,-513596 -2269672,-1188747 -3022529,-2050487 -7423467,-8498252 3741965,-19120800 11993398,-12815460 801867,612797 704438,426679 861150,924214z"/>
 </g>
</svg>
