<?xml version="1.0" encoding="UTF-8"?>
<!DOCTYPE svg PUBLIC "-//W3C//DTD SVG 1.0//EN" "http://www.w3.org/TR/2001/REC-SVG-20010904/DTD/svg10.dtd">
<!-- Creator: CorelDRAW X8 -->
<svg xmlns="http://www.w3.org/2000/svg" xml:space="preserve" width="50px" height="44px" version="1.0" style="shape-rendering:geometricPrecision; text-rendering:geometricPrecision; image-rendering:optimizeQuality; fill-rule:evenodd; clip-rule:evenodd"
viewBox="0 0 4595889 4006512"
 xmlns:xlink="http://www.w3.org/1999/xlink">
 <defs>
  <style type="text/css">
   <![CDATA[
    .fil0 {fill:#01137F}
    .fil4 {fill:url(#id0)}
    .fil1 {fill:url(#id1)}
    .fil3 {fill:url(#id2)}
    .fil2 {fill:url(#id3)}
   ]]>
  </style>
  <linearGradient id="id0" gradientUnits="userSpaceOnUse" x1="3.86286e+06" y1="2.88818e+06" x2="1.7799e+06" y2="3.89805e+06">
   <stop offset="0" style="stop-opacity:1; stop-color:#555FA9"/>
   <stop offset="0.309804" style="stop-opacity:1; stop-color:#2B3994"/>
   <stop offset="1" style="stop-opacity:1; stop-color:#01137F"/>
  </linearGradient>
  <linearGradient id="id1" gradientUnits="userSpaceOnUse" x1="3.86286e+06" y1="2.88818e+06" x2="1.7799e+06" y2="3.89805e+06">
   <stop offset="0" style="stop-opacity:1; stop-color:#555FA9"/>
   <stop offset="1" style="stop-opacity:1; stop-color:#01137F"/>
  </linearGradient>
  <linearGradient id="id2" gradientUnits="userSpaceOnUse" xlink:href="#id0" x1="3.86286e+06" y1="2.88818e+06" x2="1.7799e+06" y2="3.89805e+06">
  </linearGradient>
  <linearGradient id="id3" gradientUnits="userSpaceOnUse" xlink:href="#id0" x1="3.86286e+06" y1="2.88818e+06" x2="1.7799e+06" y2="3.89805e+06">
  </linearGradient>
 </defs>
 <g id="Camada_x0020_1">
  <metadata id="CorelCorpID_0Corel-Layer"/>
  <path class="fil0" d="M2096392 1429139c107777,9316 226999,28428 331500,-1292 173337,-49301 297613,-157671 389273,-310983 35809,-59898 64586,-191539 62602,-276162 -4965,-212142 -106235,-354934 -237759,-459205 -67448,-53478 -137503,-80530 -246124,-109935 -103972,-28146 -209045,1100 -303555,6644 16093,-56065 125120,-120176 178387,-150488 237870,-135341 528555,-177854 782253,-55000 103190,49969 220831,115661 294071,199502 722244,826811 -364065,1860296 -1166867,1246838 -78015,-59616 -68533,-41510 -83780,-89920l-1 1zm403133 -439550c-107780,-9315 -226999,-28428 -331500,1293 -173336,49301 -297613,157671 -389272,310985 -35813,59896 -64586,191537 -62606,276160 4970,212142 106235,354934 237759,459204 67452,53478 137507,80533 246124,109936 103976,28146 209048,-1100 303559,-6642 -16096,56062 -125120,120173 -178387,150485 -237870,135342 -528555,177857 -782255,55000 -103187,-49969 -220829,-115661 -294068,-199502 -722247,-826810 364064,-1860296 1166864,-1246838 78014,59616 68535,41510 83782,89920l0 -1z"/>
  <path class="fil1" d="M530001 4006512l439527 0 0 -559376 -321255 0 0 301323 -23076 0c-73691,0 -136108,-24124 -187245,-72379 -62677,-61365 -93884,-143450 -93884,-245725 0,-66611 15470,-127713 46155,-183048 51137,-93098 129551,-139779 234975,-139779l281392 0 78411 -258054 -454998 0 0 0c-164956,1052 -297129,60317 -396521,178328 -88901,108572 -133482,241532 -133482,399404 0,143450 37764,267756 113551,373442 99392,137156 238123,205864 416452,205864l-2 0z"/>
  <path class="fil2" d="M1109307 4006512l321253 0 0 -393373 70545 0 233663 393373 367145 0 -277981 -418023c41958,-16259 79459,-39339 112240,-68971 74742,-70808 111980,-162595 111980,-275098 0,-89164 -23864,-169675 -72116,-241268 -70808,-102538 -170986,-153679 -301063,-153679l-565667 0 -78413 258054 78413 0 0 247562 0 651423 1 0zm321253 -898986l0 247562 148956 0c56382,0 94409,-24653 113818,-73954 6030,-16258 9176,-32781 9176,-49040 0,-49304 -19404,-85493 -58480,-109095 -19408,-10228 -40910,-15473 -64514,-15473l-148956 0z"/>
  <path class="fil3" d="M2649227 3204296l-112243 408843 224223 0 -111980 -408843zm-556227 802216l336463 0 38287 -135319 362691 0 38549 135319 336463 0 -364262 -1157039 -385767 0 -362425 1157039 1 0z"/>
  <polygon class="fil4" points="3282030,4006512 3603283,4006512 3603283,3424060 3746208,4006512 4131975,4006512 4274636,3424060 4274636,4006512 4595889,4006512 4595889,2849473 4159510,2849473 3939747,3653003 3719983,2849473 3282030,2849473 3203616,3107526 3282030,3107526 "/>
 </g>
</svg>
